<svg xmlns="http://www.w3.org/2000/svg" xmlns:xlink="http://www.w3.org/1999/xlink" width="1140" height="994" viewBox="189 39 1140 994" preserveAspectRatio="xMidYMid meet" version="1.2"><defs><clipPath id="1495730c1f"><path d="M 189 39.09375 L 1329 39.09375 L 1329 1033 L 189 1033 Z M 189 39.09375 "/></clipPath><clipPath id="e35a7ea702"><path d="M 48.609375 876 L 1097 876 L 1097 1303.59375 L 48.609375 1303.59375 Z M 48.609375 876 "/></clipPath><clipPath id="4ba96327da"><path d="M 381 956 L 1469 956 L 1469 1303.59375 L 381 1303.59375 Z M 381 956 "/></clipPath><clipPath id="4757714397"><path d="M 189 24.09375 L 1329 24.09375 L 1329 1018 L 189 1018 Z M 189 24.09375 "/></clipPath><clipPath id="48f7928cd6"><path d="M 48.609375 861 L 1097 861 L 1097 1288.59375 L 48.609375 1288.59375 Z M 48.609375 861 "/></clipPath><clipPath id="5b8658078d"><path d="M 381 941 L 1469 941 L 1469 1288.59375 L 381 1288.59375 Z M 381 941 "/></clipPath><clipPath id="ed6d4829a5"><rect x="0" width="769" y="0" height="148"/></clipPath></defs><g id="aa9d4084aa"><g clip-rule="nonzero" clip-path="url(#1495730c1f)"><path style=" stroke:none;fill-rule:evenodd;fill:#ff6600;fill-opacity:1;" d="M 454.589844 859.085938 L 753.269531 344.8125 L 1063.105469 879.816406 C 1075.871094 884.617188 1090.269531 889.417969 1103.039062 894.109375 C 1187.707031 924.441406 1262.769531 972.121094 1328.238281 1032.675781 L 1111.003906 656.910156 L 841.074219 191.953125 L 753.269531 39.09375 L 663.855469 191.953125 L 395.507812 656.910156 L 189.460938 1011.945312 C 250.179688 959.464844 317.226562 916.476562 389.125 884.617188 C 411.492188 875.015625 432.222656 867.046875 454.589844 859.085938 Z M 454.589844 859.085938 "/></g><g clip-rule="nonzero" clip-path="url(#e35a7ea702)"><path style=" stroke:none;fill-rule:evenodd;fill:#ff6600;fill-opacity:1;" d="M 240.628906 1277.835938 C 417.875 986.523438 767.667969 851.121094 1096.710938 948.335938 C 994.476562 902.074219 881.007812 876.652344 764.453125 876.652344 C 647.871094 876.652344 534.457031 902.074219 432.222656 948.335938 C 286.890625 1013.582031 162.292969 1120.285156 76.097656 1258.742188 L 48.929688 1303.367188 L 226.230469 1303.367188 C 231.03125 1295.402344 235.832031 1285.800781 240.628906 1277.835938 Z M 240.628906 1277.835938 "/></g><g clip-rule="nonzero" clip-path="url(#4ba96327da)"><path style=" stroke:none;fill-rule:evenodd;fill:#ff6600;fill-opacity:1;" d="M 968.949219 962.628906 C 750.050781 932.402344 529.65625 1011.945312 381.164062 1174.40625 C 492.941406 1097.917969 625.507812 1056.566406 764.457031 1056.566406 C 967.316406 1056.566406 1158.902344 1147.347656 1288.304688 1303.367188 L 1468.761719 1303.367188 L 1452.835938 1277.835938 C 1433.632812 1246.085938 1412.902344 1217.390625 1388.898438 1190.335938 C 1315.472656 1104.359375 1221.199219 1037.476562 1114.277344 999.292969 C 1067.90625 981.71875 1020.003906 968.957031 968.949219 962.628906 Z M 968.949219 962.628906 "/></g><g clip-rule="nonzero" clip-path="url(#4757714397)"><path style=" stroke:none;fill-rule:evenodd;fill:#666666;fill-opacity:1;" d="M 454.589844 844.085938 L 753.269531 329.8125 L 1063.105469 864.816406 C 1075.871094 869.617188 1090.269531 874.417969 1103.039062 879.109375 C 1187.707031 909.441406 1262.769531 957.121094 1328.238281 1017.675781 L 1111.003906 641.910156 L 841.074219 176.953125 L 753.269531 24.09375 L 663.855469 176.953125 L 395.507812 641.910156 L 189.460938 996.945312 C 250.179688 944.464844 317.226562 901.476562 389.125 869.617188 C 411.492188 860.015625 432.222656 852.046875 454.589844 844.085938 Z M 454.589844 844.085938 "/></g><g clip-rule="nonzero" clip-path="url(#48f7928cd6)"><path style=" stroke:none;fill-rule:evenodd;fill:#666666;fill-opacity:1;" d="M 240.628906 1262.835938 C 417.875 971.523438 767.667969 836.121094 1096.710938 933.335938 C 994.476562 887.074219 881.007812 861.652344 764.453125 861.652344 C 647.871094 861.652344 534.457031 887.074219 432.222656 933.335938 C 286.890625 998.582031 162.292969 1105.285156 76.097656 1243.742188 L 48.929688 1288.367188 L 226.230469 1288.367188 C 231.03125 1280.402344 235.832031 1270.800781 240.628906 1262.835938 Z M 240.628906 1262.835938 "/></g><g clip-rule="nonzero" clip-path="url(#5b8658078d)"><path style=" stroke:none;fill-rule:evenodd;fill:#666666;fill-opacity:1;" d="M 968.949219 947.628906 C 750.050781 917.402344 529.65625 996.945312 381.164062 1159.40625 C 492.941406 1082.917969 625.507812 1041.566406 764.457031 1041.566406 C 967.316406 1041.566406 1158.902344 1132.347656 1288.304688 1288.367188 L 1468.761719 1288.367188 L 1452.835938 1262.835938 C 1433.632812 1231.085938 1412.902344 1202.390625 1388.898438 1175.335938 C 1315.472656 1089.359375 1221.199219 1022.476562 1114.277344 984.292969 C 1067.90625 966.71875 1020.003906 953.957031 968.949219 947.628906 Z M 968.949219 947.628906 "/></g><g transform="matrix(1,0,0,1,378,1276)"><g clip-path="url(#ed6d4829a5)"><g style="fill:#ff6600;fill-opacity:1;"><g transform="translate(2.731617, 114.215686)"><path style="stroke:none" d="M 58.46875 -18.421875 L 26.15625 -18.421875 L 20.015625 0 L 0.4375 0 L 33.71875 -89.40625 L 50.78125 -89.40625 L 84.25 0 L 64.65625 0 Z M 31.140625 -33.34375 L 53.484375 -33.34375 L 42.25 -66.8125 Z M 31.140625 -33.34375 "/></g></g><g style="fill:#ff6600;fill-opacity:1;"><g transform="translate(114.372985, 114.215686)"><path style="stroke:none" d="M 38.8125 -49.125 L 57.421875 -89.40625 L 77.5625 -89.40625 L 48.203125 -32.421875 L 48.203125 0 L 29.46875 0 L 29.46875 -32.421875 L 0.125 -89.40625 L 20.328125 -89.40625 Z M 38.8125 -49.125 "/></g></g><g style="fill:#ff6600;fill-opacity:1;"><g transform="translate(219.138387, 114.215686)"><path style="stroke:none" d="M 41.078125 -32.734375 L 26.40625 -32.734375 L 26.40625 0 L 7.984375 0 L 7.984375 -89.40625 L 41.203125 -89.40625 C 51.765625 -89.40625 59.910156 -87.050781 65.640625 -82.34375 C 71.378906 -77.632812 74.25 -70.984375 74.25 -62.390625 C 74.25 -56.285156 72.925781 -51.195312 70.28125 -47.125 C 67.644531 -43.050781 63.644531 -39.804688 58.28125 -37.390625 L 77.625 -0.859375 L 77.625 0 L 57.84375 0 Z M 26.40625 -47.65625 L 41.265625 -47.65625 C 45.890625 -47.65625 49.472656 -48.832031 52.015625 -51.1875 C 54.554688 -53.539062 55.828125 -56.785156 55.828125 -60.921875 C 55.828125 -65.140625 54.628906 -68.453125 52.234375 -70.859375 C 49.835938 -73.273438 46.160156 -74.484375 41.203125 -74.484375 L 26.40625 -74.484375 Z M 26.40625 -47.65625 "/></g></g><g style="fill:#ff6600;fill-opacity:1;"><g transform="translate(326.420913, 114.215686)"><path style="stroke:none" d="M 81.421875 -42.671875 C 81.421875 -33.867188 79.863281 -26.148438 76.75 -19.515625 C 73.644531 -12.890625 69.195312 -7.773438 63.40625 -4.171875 C 57.613281 -0.566406 50.972656 1.234375 43.484375 1.234375 C 36.066406 1.234375 29.453125 -0.546875 23.640625 -4.109375 C 17.828125 -7.671875 13.320312 -12.757812 10.125 -19.375 C 6.9375 -25.988281 5.320312 -33.59375 5.28125 -42.1875 L 5.28125 -46.609375 C 5.28125 -55.410156 6.863281 -63.15625 10.03125 -69.84375 C 13.207031 -76.539062 17.691406 -81.679688 23.484375 -85.265625 C 29.273438 -88.847656 35.894531 -90.640625 43.34375 -90.640625 C 50.800781 -90.640625 57.425781 -88.847656 63.21875 -85.265625 C 69.007812 -81.679688 73.488281 -76.539062 76.65625 -69.84375 C 79.832031 -63.15625 81.421875 -55.429688 81.421875 -46.671875 Z M 62.765625 -46.734375 C 62.765625 -56.109375 61.082031 -63.226562 57.71875 -68.09375 C 54.363281 -72.96875 49.578125 -75.40625 43.359375 -75.40625 C 37.171875 -75.40625 32.398438 -73 29.046875 -68.1875 C 25.691406 -63.382812 23.992188 -56.335938 23.953125 -47.046875 L 23.953125 -42.671875 C 23.953125 -33.546875 25.628906 -26.460938 28.984375 -21.421875 C 32.335938 -16.390625 37.171875 -13.875 43.484375 -13.875 C 49.660156 -13.875 54.40625 -16.300781 57.71875 -21.15625 C 61.039062 -26.007812 62.722656 -33.082031 62.765625 -42.375 Z M 62.765625 -46.734375 "/></g></g><g style="fill:#ff6600;fill-opacity:1;"><g transform="translate(440.272416, 114.215686)"><path style="stroke:none" d="M 58.46875 -18.421875 L 26.15625 -18.421875 L 20.015625 0 L 0.4375 0 L 33.71875 -89.40625 L 50.78125 -89.40625 L 84.25 0 L 64.65625 0 Z M 31.140625 -33.34375 L 53.484375 -33.34375 L 42.25 -66.8125 Z M 31.140625 -33.34375 "/></g></g><g style="fill:#ff6600;fill-opacity:1;"><g transform="translate(551.913785, 114.215686)"><path style="stroke:none" d="M 26.40625 -31.5 L 26.40625 0 L 7.984375 0 L 7.984375 -89.40625 L 42.859375 -89.40625 C 49.578125 -89.40625 55.484375 -88.175781 60.578125 -85.71875 C 65.671875 -83.269531 69.585938 -79.78125 72.328125 -75.25 C 75.078125 -70.726562 76.453125 -65.582031 76.453125 -59.8125 C 76.453125 -51.050781 73.453125 -44.140625 67.453125 -39.078125 C 61.460938 -34.023438 53.164062 -31.5 42.5625 -31.5 Z M 26.40625 -46.421875 L 42.859375 -46.421875 C 47.734375 -46.421875 51.445312 -47.566406 54 -49.859375 C 56.5625 -52.148438 57.84375 -55.425781 57.84375 -59.6875 C 57.84375 -64.070312 56.550781 -67.613281 53.96875 -70.3125 C 51.394531 -73.007812 47.835938 -74.398438 43.296875 -74.484375 L 26.40625 -74.484375 Z M 26.40625 -46.421875 "/></g></g><g style="fill:#ff6600;fill-opacity:1;"><g transform="translate(660.055806, 114.215686)"><path style="stroke:none" d="M 26.40625 -31.5 L 26.40625 0 L 7.984375 0 L 7.984375 -89.40625 L 42.859375 -89.40625 C 49.578125 -89.40625 55.484375 -88.175781 60.578125 -85.71875 C 65.671875 -83.269531 69.585938 -79.78125 72.328125 -75.25 C 75.078125 -70.726562 76.453125 -65.582031 76.453125 -59.8125 C 76.453125 -51.050781 73.453125 -44.140625 67.453125 -39.078125 C 61.460938 -34.023438 53.164062 -31.5 42.5625 -31.5 Z M 26.40625 -46.421875 L 42.859375 -46.421875 C 47.734375 -46.421875 51.445312 -47.566406 54 -49.859375 C 56.5625 -52.148438 57.84375 -55.425781 57.84375 -59.6875 C 57.84375 -64.070312 56.550781 -67.613281 53.96875 -70.3125 C 51.394531 -73.007812 47.835938 -74.398438 43.296875 -74.484375 L 26.40625 -74.484375 Z M 26.40625 -46.421875 "/></g></g></g></g></g></svg>