<svg xmlns="http://www.w3.org/2000/svg" xmlns:xlink="http://www.w3.org/1999/xlink" width="3250" zoomAndPan="magnify" viewBox="0 0 2437.5 2167.499963" height="2890" preserveAspectRatio="xMidYMid meet" version="1.0"><defs><g/><clipPath id="6aae5226db"><path d="M 926.175781 741.632812 L 1510.824219 741.632812 L 1510.824219 1326.28125 L 926.175781 1326.28125 Z M 926.175781 741.632812 " clip-rule="nonzero"/></clipPath><clipPath id="e7de228e21"><path d="M 926.175781 1033.957031 C 926.175781 1195.402344 1057.054688 1326.28125 1218.5 1326.28125 C 1379.945312 1326.28125 1510.824219 1195.402344 1510.824219 1033.957031 C 1510.824219 872.511719 1379.945312 741.632812 1218.5 741.632812 C 1057.054688 741.632812 926.175781 872.511719 926.175781 1033.957031 Z M 926.175781 1033.957031 " clip-rule="nonzero"/></clipPath><clipPath id="f553e31414"><path d="M 0.175781 0.632812 L 584.824219 0.632812 L 584.824219 585.28125 L 0.175781 585.28125 Z M 0.175781 0.632812 " clip-rule="nonzero"/></clipPath><clipPath id="e87cfda7a0"><path d="M 0.175781 292.957031 C 0.175781 454.402344 131.054688 585.28125 292.5 585.28125 C 453.945312 585.28125 584.824219 454.402344 584.824219 292.957031 C 584.824219 131.511719 453.945312 0.632812 292.5 0.632812 C 131.054688 0.632812 0.175781 131.511719 0.175781 292.957031 Z M 0.175781 292.957031 " clip-rule="nonzero"/></clipPath><clipPath id="f551afc39c"><rect x="0" width="585" y="0" height="586"/></clipPath><clipPath id="a86a3cad26"><rect x="0" width="737" y="0" height="954"/></clipPath></defs><g clip-path="url(#6aae5226db)"><g clip-path="url(#e7de228e21)"><g transform="matrix(1, 0, 0, 1, 926, 741)"><g clip-path="url(#f551afc39c)"><g clip-path="url(#f553e31414)"><g clip-path="url(#e87cfda7a0)"><path fill="#fd6c01" d="M 0.175781 585.28125 L 0.175781 0.632812 L 584.824219 0.632812 L 584.824219 585.28125 Z M 0.175781 585.28125 " fill-opacity="1" fill-rule="nonzero"/></g></g></g></g></g></g><g transform="matrix(1, 0, 0, 1, 851, 605)"><g clip-path="url(#a86a3cad26)"><g fill="#000000" fill-opacity="1"><g transform="translate(40.346803, 816.302619)"><g><path d="M 349.824219 -656.457031 L 140.941406 -15.503906 L 94.425781 -22.890625 L 94.425781 -23.84375 L 118.269531 -23.84375 L 140.410156 -14.988281 C 135.230469 -2.035156 127.9375 8.695312 118.53125 17.203125 C 107.3125 27.355469 93.875 32.429688 78.210938 32.429688 C 71.550781 32.429688 65.0625 31.796875 58.75 30.535156 C 53.613281 29.507812 48.3125 28.3125 42.859375 26.949219 L 48.644531 -20.03125 L 49.597656 -20.03125 L 49.597656 3.816406 L 42.417969 26.554688 C 18.898438 19.125 2.246094 7.960938 -7.535156 -6.945312 C -18.40625 -23.507812 -20.269531 -42.730469 -13.132812 -64.621094 L 204.355469 -725.664062 C 208.789062 -739.863281 216.652344 -751.929688 227.941406 -761.863281 C 239.613281 -772.132812 253.3125 -778.195312 269.046875 -780.046875 L 271.832031 -756.363281 L 267.6875 -779.847656 C 279.136719 -781.867188 290.265625 -783.382812 301.082031 -784.398438 C 311.996094 -785.417969 320.6875 -785.929688 327.152344 -785.929688 C 333.621094 -785.929688 342.308594 -785.417969 353.222656 -784.398438 C 363.585938 -783.425781 374.265625 -782.292969 385.261719 -781 L 385.554688 -780.964844 L 385.847656 -780.921875 C 399.828125 -778.925781 412.960938 -772.011719 425.242188 -760.1875 C 435.617188 -750.195312 443.621094 -739.972656 449.25 -729.515625 L 450.257812 -727.648438 L 559.171875 -395.140625 L 667.429688 -64.652344 C 674.148438 -42.582031 672.128906 -23.347656 661.367188 -6.945312 C 651.609375 7.921875 635.15625 19.074219 612.007812 26.515625 L 611.257812 26.757812 L 610.492188 26.949219 C 605.265625 28.253906 600.515625 29.402344 596.242188 30.386719 C 590.34375 31.75 583.945312 32.429688 577.050781 32.429688 C 562.429688 32.429688 549.261719 27.589844 537.539062 17.90625 C 526.714844 8.960938 518.988281 -2.441406 514.367188 -16.304688 L 536.988281 -23.84375 L 560.835938 -23.84375 L 560.835938 -22.890625 L 514.328125 -15.472656 L 304.492188 -656.425781 L 327.152344 -663.84375 Z M 327.101562 -740.640625 L 559.652344 -30.308594 L 536.988281 -22.890625 L 513.144531 -22.890625 L 513.144531 -23.84375 L 559.609375 -31.386719 C 561.347656 -26.171875 564.117188 -21.996094 567.914062 -18.859375 C 570.820312 -16.460938 573.863281 -15.261719 577.050781 -15.261719 C 580.324219 -15.261719 583.148438 -15.535156 585.515625 -16.082031 C 589.511719 -17.003906 593.980469 -18.082031 598.925781 -19.316406 L 604.710938 3.816406 L 597.414062 -18.886719 C 609.871094 -22.890625 617.898438 -27.632812 621.496094 -33.113281 C 624.085938 -37.058594 624.289062 -42.625 622.109375 -49.804688 L 513.851562 -380.296875 L 405.597656 -710.789062 L 428.257812 -718.210938 L 407.261719 -706.90625 C 403.988281 -712.984375 398.957031 -719.292969 392.164062 -725.835938 C 387.277344 -730.539062 382.921875 -733.167969 379.101562 -733.710938 L 382.472656 -757.316406 L 379.6875 -733.636719 C 369.0625 -734.886719 358.757812 -735.976562 348.773438 -736.914062 C 339.339844 -737.800781 332.132812 -738.242188 327.152344 -738.242188 C 322.175781 -738.242188 314.96875 -737.800781 305.535156 -736.914062 C 296.003906 -736.019531 286.152344 -734.675781 275.976562 -732.882812 L 275.300781 -732.761719 L 274.621094 -732.683594 C 268.734375 -731.988281 263.675781 -729.78125 259.449219 -726.0625 C 254.84375 -722.011719 251.578125 -716.910156 249.65625 -710.757812 L 32.207031 -49.835938 C 29.808594 -42.472656 29.851562 -36.898438 32.335938 -33.113281 C 35.90625 -27.671875 44.054688 -22.941406 56.777344 -18.921875 L 49.597656 27.660156 L 48.644531 27.660156 L 48.644531 3.816406 L 54.425781 -19.316406 C 59.148438 -18.136719 63.707031 -17.109375 68.105469 -16.226562 C 71.328125 -15.582031 74.699219 -15.261719 78.210938 -15.261719 C 81.625 -15.261719 84.398438 -16.226562 86.535156 -18.160156 C 90.484375 -21.730469 93.683594 -26.578125 96.132812 -32.699219 L 142.117188 -23.84375 L 142.117188 -22.890625 L 118.269531 -22.890625 L 95.601562 -30.28125 L 304.480469 -671.234375 Z M 422.535156 -228.910156 C 422.535156 -201.980469 413.050781 -179.03125 394.089844 -160.070312 C 375.125 -141.105469 352.179688 -131.625 325.246094 -131.625 C 298.207031 -131.625 275.355469 -141.167969 256.691406 -160.257812 C 238.171875 -179.199219 228.910156 -202.085938 228.910156 -228.910156 C 228.910156 -255.738281 238.171875 -278.625 256.691406 -297.566406 C 275.355469 -316.65625 298.207031 -326.199219 325.246094 -326.199219 C 352.179688 -326.199219 375.125 -316.71875 394.089844 -297.753906 C 413.050781 -278.792969 422.535156 -255.84375 422.535156 -228.910156 Z M 374.84375 -228.910156 C 374.84375 -242.675781 370.019531 -254.382812 360.367188 -264.03125 C 350.714844 -273.683594 339.007812 -278.507812 325.246094 -278.507812 C 311.585938 -278.507812 300.101562 -273.746094 290.789062 -264.222656 C 281.332031 -254.550781 276.601562 -242.78125 276.601562 -228.910156 C 276.601562 -215.042969 281.332031 -203.273438 290.789062 -193.601562 C 300.101562 -184.078125 311.585938 -179.316406 325.246094 -179.316406 C 339.007812 -179.316406 350.714844 -184.140625 360.367188 -193.789062 C 370.019531 -203.441406 374.84375 -215.148438 374.84375 -228.910156 Z M 374.84375 -228.910156 "/></g></g></g><g fill="#000000" fill-opacity="1"><g transform="translate(40.346803, 816.302619)"><g><path d="M 327.15625 -663.84375 L 118.265625 -22.890625 L 118.265625 -23.84375 C 114.453125 -14.300781 109.207031 -6.507812 102.53125 -0.46875 C 95.851562 5.5625 87.75 8.578125 78.21875 8.578125 C 73.125 8.578125 68.191406 8.097656 63.421875 7.140625 C 58.660156 6.191406 53.734375 5.082031 48.640625 3.8125 L 49.59375 3.8125 C 13.351562 -7.632812 0 -27.984375 9.53125 -57.234375 L 227 -718.203125 C 230.175781 -728.378906 235.738281 -736.960938 243.6875 -743.953125 C 251.644531 -750.953125 261.023438 -755.085938 271.828125 -756.359375 C 282.640625 -758.265625 293.128906 -759.691406 303.296875 -760.640625 C 313.472656 -761.597656 321.425781 -762.078125 327.15625 -762.078125 C 332.875 -762.078125 340.820312 -761.597656 351 -760.640625 C 361.175781 -759.691406 371.664062 -758.582031 382.46875 -757.3125 C 391.375 -756.039062 400.117188 -751.269531 408.703125 -743 C 417.285156 -734.738281 423.800781 -726.472656 428.25 -718.203125 C 463.863281 -608.835938 499.953125 -498.675781 536.515625 -387.71875 C 573.078125 -276.757812 609.160156 -166.597656 644.765625 -57.234375 C 653.671875 -27.984375 640.316406 -7.632812 604.703125 3.8125 C 599.617188 5.082031 595.007812 6.191406 590.875 7.140625 C 586.738281 8.097656 582.128906 8.578125 577.046875 8.578125 C 568.140625 8.578125 560.03125 5.5625 552.71875 -0.46875 C 545.40625 -6.507812 540.160156 -14.300781 536.984375 -23.84375 L 536.984375 -22.890625 Z M 398.6875 -228.90625 C 398.6875 -208.5625 391.53125 -191.234375 377.21875 -176.921875 C 362.914062 -162.617188 345.59375 -155.46875 325.25 -155.46875 C 304.894531 -155.46875 287.722656 -162.617188 273.734375 -176.921875 C 259.742188 -191.234375 252.75 -208.5625 252.75 -228.90625 C 252.75 -249.257812 259.742188 -266.585938 273.734375 -280.890625 C 287.722656 -295.203125 304.894531 -302.359375 325.25 -302.359375 C 345.59375 -302.359375 362.914062 -295.203125 377.21875 -280.890625 C 391.53125 -266.585938 398.6875 -249.257812 398.6875 -228.90625 Z M 398.6875 -228.90625 "/></g></g></g></g></g></svg>