<?xml version="1.0" encoding="UTF-8" standalone="no"?><!DOCTYPE svg PUBLIC "-//W3C//DTD SVG 1.1//EN" "http://www.w3.org/Graphics/SVG/1.1/DTD/svg11.dtd"><svg width="100%" height="100%" viewBox="0 0 6000 3375" version="1.1" xmlns="http://www.w3.org/2000/svg" xmlns:xlink="http://www.w3.org/1999/xlink" xml:space="preserve" xmlns:serif="http://www.serif.com/" style="fill-rule:evenodd;clip-rule:evenodd;stroke-linejoin:round;stroke-miterlimit:2;"><g id="Sfondo"><path d="M4469.69,1383.56c0.99,24.69 10.939,272.918 -5.486,308.829c-24.865,54.365 -80.527,51.562 -193.023,49.335c-110.605,-2.19 -91.889,-91.927 -91.889,-264.908c-0,-51.883 -16.666,-142.718 69.514,-161.594c0.775,-0.17 135.154,-8.449 165.913,4.447c46.534,19.51 48.18,38.821 54.971,63.892Zm-148.094,305.389c6.202,-0.057 65.972,-0.605 76.505,-12.548c10.213,-11.581 8.422,-21.44 8.404,-242.835c-0.007,-85.77 -35.515,-69.602 -120.984,-66.063c-50.949,2.109 -41.221,26.091 -41.221,210.23c0,55.692 -11.916,110.577 41.153,111.138c12.047,0.127 24.097,-0.048 36.144,0.079Zm731.965,-334.635c0.122,373.069 1.924,377.589 -12.459,386.778c-8.426,5.384 -49.07,13.393 -50.927,-26.309c-2.952,-63.115 6.301,-268.512 -6.034,-272.429c-11.771,-3.738 -11.775,4.305 -64.2,178.644c-24.442,81.282 -32.505,146.711 -80.262,116.494c-13.925,-8.81 -8.996,-12.122 -66.015,-195.104c-1.072,-3.44 -46.928,-194.653 -45.979,-51.156c1.493,225.709 5.986,227.333 -5.709,242.854c-13.965,18.533 -56.823,14.389 -57.661,-11.825c-0.958,-29.993 0.615,-29.703 -0.676,-375.107c-0.125,-33.388 90.479,-72.496 117.248,14.942c56.618,184.936 76.595,283.409 86.087,257.53c7.595,-20.706 -4.377,-23.995 71.956,-266.136c15.898,-50.432 103.783,-69.986 114.631,0.824Zm-2627.258,1235.211c-3.397,-0.603 -21.958,5.904 -22.125,-16.86c-0.007,-0.977 -0.004,-1763.982 -0.002,-1764.692c0.115,-28.831 45.978,-26.494 45.259,0.083c-1.026,37.911 -0.158,1721.577 -0.447,1764.633c-0.161,23.906 -19.111,16.292 -22.685,16.836Zm1488.357,-1134.335c-0.498,-46.798 -0.509,-46.498 -0.538,-50.542c-0.308,-42.089 -38.149,-38.985 -133.237,-37.232c-27.583,0.509 -13.73,17.64 -16.31,340.056c-0.486,60.722 -55.732,38.454 -61.784,21.189c-9.777,-27.893 -3.382,-344.461 -2.777,-374.409c1.039,-51.41 36.334,-41.279 153.041,-40.968c130.843,0.349 130.737,39.905 126.65,170.645c-2.082,66.607 -67.817,53.793 -43.076,95.561c71.347,120.45 102.816,149.912 46.842,166.461c-17.318,5.12 -21.075,0.491 -105.72,-141.22c-20.317,-34.014 -21.541,-37.012 -60.929,-39.768c-29.373,-2.055 -31.322,-46.806 -7.552,-53.845c44.84,-13.278 100.387,36.058 105.39,-55.93Zm1730.116,259.496c15.755,-49.936 90.531,-152.713 100.89,-181.156c9.049,-24.846 -128.634,-187.701 -94.872,-212.027c54.196,-39.049 77.946,53.935 136.711,146.321c26.006,40.886 83.5,-169.862 134.264,-156.525c48.124,12.643 22.893,45.973 -25.087,127.424c-44.824,76.094 -59.131,82.13 -42.206,111.651c79.924,139.405 121.863,178.869 60.617,195.134c-35.197,9.347 -99.445,-150.104 -116.038,-160.104c-15.759,-9.497 -86.172,148.856 -107.741,158.377c-34.083,15.044 -45.344,-24.869 -46.536,-29.094Zm-2730.873,-337.346c-5.713,2.395 -5.586,-2.477 -10.958,-0.225c-0.44,0.184 -0.468,0.196 -1.95,5.637c-47.895,175.827 -100.842,317.692 -110.975,344.843c-12.851,34.433 -67.509,15.775 -62.745,-13.047c5.359,-32.421 109.514,-337.341 119.484,-366.526c21.277,-62.291 102.18,-38.807 117.287,-14.045c8.011,13.132 109.461,329.986 118.679,358.778c21.833,68.19 -40.505,56.361 -50.966,43.216c-5.968,-7.5 -92.107,-267.255 -117.857,-358.63Zm2546.605,311.611c4.438,0.339 58.418,4.463 32.649,45.055c-7.9,12.444 -227.317,12.48 -239.153,-0.077c-8.357,-8.867 -8.738,-10.691 -8.42,-336.404c0.058,-59.901 -10.673,-83.851 49.139,-84.236c181.776,-1.172 189.647,0.462 192.105,19.75c5.74,45.048 -38.747,34.14 -156.078,34.332c-20.021,0.033 -22.486,3.282 -22.513,22.938c-0.399,292.564 0.943,294.973 7.241,297.348c4.533,1.709 36.85,1.291 145.029,1.295Zm-2078.8,-193.45c87.47,-172.75 103.078,-211.387 138.564,-182.828c24.575,19.778 11.335,28.706 -100.266,243.149c-31.963,61.418 22.316,217.113 -57.547,188.795c-38.959,-13.814 0.303,-131.921 -26.098,-182.517c-107.448,-205.919 -146.061,-256.581 -81.584,-256.56c13.125,0.004 18.591,0.006 90.217,137.035c22.446,42.941 15.747,53.252 36.713,52.926Zm-209.703,449.632c3.361,-22.13 6.828,-23.35 28.955,-23.534c17.582,-0.146 84.568,-11.378 85.26,82.034c0.079,10.625 0.783,105.767 -104.396,82.105c-13.088,-2.944 -9.867,-21.738 -9.819,-140.605Zm19.705,91.012c0.27,10.796 -11.516,44.59 41.23,30.888c50.008,-12.991 48.359,-121.026 -6.343,-126.267c-2.665,-0.255 -30.189,-2.893 -33.258,3.685c-2.311,4.952 -1.629,54.194 -1.629,91.695Zm321.206,94.74c-48.022,0.019 -50.58,6.311 -58.828,-3.39c-21.362,-25.127 90.83,0.462 80.69,-40.427c-2.468,-9.951 -69.072,27.734 -87.671,-37.646c-0.663,-2.33 -17.582,-109.057 78.476,-77.189c10.713,3.554 27.632,-8.185 28.241,11.713c4.049,132.252 -5.7,140.046 -40.908,146.939Zm-12.868,-59.376c59.611,-9.486 28.029,-74.985 23.416,-78.631c-55.505,-43.864 -92.971,70.552 -23.416,78.631Zm1627.707,-29.327c-0.057,-2.527 -9.113,-44.602 25.051,-68.865c13.152,-9.341 42.625,-10.13 56.307,-1.056c85.124,56.46 -39.033,193.869 -81.357,69.921Zm56.137,29.324c24.021,-4.427 26.266,-5.468 33.146,-28.626c4.274,-14.386 0.71,-31.268 -3.037,-38.159c-40.974,-75.353 -115.3,57.219 -30.109,66.784Zm-1254.793,-83.459c-39.528,-1.616 -41.257,0.769 -44.407,-4.593c-12.413,-21.127 75.313,-13.247 77.042,-12.749c8.082,2.328 13.554,3.904 8.326,104.806c-0.686,13.238 -19.916,7.064 -28.863,9.825c-73.842,22.79 -76.955,-43.107 -62.366,-60.863c22.612,-27.521 28.331,-16.371 63.238,-12.552c2.161,0.236 30.062,-17.39 -12.97,-23.874Zm-13.183,83.626c52.999,-3.163 35.01,-53.11 -6.804,-44.7c-15.259,3.069 -40.459,34.908 6.804,44.7Zm851.838,-83.624c-35.871,-3.476 -64.153,5.231 -43.532,-15.025c2.354,-2.312 81.981,-14.283 83.835,11.008c7.105,96.944 1.325,99.638 -6.687,100.478c-4.733,0.497 -9.451,-1.309 -14.21,-1.394c-1.825,-0.032 -43.711,20.954 -69.404,-9.556c-24.69,-29.32 6.044,-75.679 50.368,-65.02c16.932,4.072 25.107,4.848 21.47,-11.959c-2.376,-10.982 -6.342,-6.268 -21.84,-8.532Zm-13.165,83.647c53.174,-3.646 34.441,-52.756 -6.811,-44.768c-16.208,3.139 -41.356,35.038 6.811,44.768Zm-129.768,-0.19c34.554,-5.954 31.595,-40.417 45.008,-22.098c19.07,26.044 -82.436,75.695 -101.393,-0.736c-23.104,-93.151 97.616,-113.212 103.4,-32.139c2.228,31.23 -93.539,2.27 -86.218,26.134c8.165,26.617 11.778,26.936 39.203,28.839Zm-6.594,-58.533c23.49,-2.259 43.081,5.284 30.018,-14.434c-27.794,-41.955 -81.466,12.085 -50.136,14.39c6.688,0.492 13.43,-0.448 20.118,0.044Zm-314.866,-9.339c4.884,92.101 55.02,83.28 75.888,39.715c8.197,-17.112 21.803,-6.578 15.395,11.465c-27.427,77.234 -138.121,28.744 -105.884,-89.578c26.14,-95.942 128.516,-22.971 108.226,5.759c-15.122,21.412 -17.974,-48.955 -65.275,-33.702c-25,8.062 -28.02,60.579 -28.352,66.341Zm1166.782,68.01c68.423,-16.855 -38.117,-41.361 -47.455,-60.523c-27.603,-56.648 86.826,-56.118 83.567,-13.903c-1.47,19.04 -22.937,-4.213 -24.291,-5.68c-14.474,-15.678 -43.571,-8.411 -43.956,5.637c-0.245,8.931 35.523,23.286 38.946,24.66c66.594,26.727 19.698,87.313 -38.36,63.406c-33.725,-13.888 -25.975,-55.812 -8.978,-35.023c15.467,18.917 16.198,19.591 40.528,21.426Zm-149.784,-83.475c-19.788,1.965 -28.7,-4.598 -28.864,15.364c-0.124,15.122 4.642,86.355 -10.006,82.317c-14.46,-3.985 -13.7,-111.121 -0.262,-115.114c4.19,-1.245 78.335,-2.413 84.36,0.942c8.487,4.727 6.918,38.682 6.893,96.974c-0.01,23.74 -16.559,18.702 -17.657,6.29c-0.2,-2.263 0.082,-75.316 -0.511,-78.17c-2.611,-12.554 -33.315,-8.592 -33.953,-8.605Zm-1287.157,-52.631c-12.127,-3.15 -12.372,-2.599 -13.098,-3.402c-17.561,-19.428 36.02,-15.681 39.397,-15.445c17.491,1.223 11.14,54.806 11.902,138.994c0.224,24.768 39.85,10.171 48.261,17.686c23.406,20.914 -109.358,14.627 -113.249,8.628c-1.536,-2.368 -3.339,-10.649 33.304,-11.664c20.006,-0.554 14.733,-28.557 14.544,-86.197c-0.107,-32.685 11.203,-47.077 -21.061,-48.598Zm1323.704,-415.361c14.451,-73.79 72.455,-36.423 73.937,-35.159c53.469,45.634 -43.271,133.357 -73.937,35.159Zm-476.045,535.186c-0.654,-48.144 -0.562,-47.838 -0.707,-51.996c-0.629,-18.159 -36.317,-6.606 -37.775,-19.538c-1.569,-13.914 6.664,-7.614 30.155,-10.568c4.753,-0.598 3.18,-2.63 8.299,-27.416c1.386,-6.71 16.995,-13.8 18.348,5.643c3.116,44.779 33.36,11.372 44.951,25.365c17.298,20.883 -43.102,6.651 -44.784,26.951c-6.439,77.692 22.297,65.579 37.218,66.667c13.582,0.99 12.766,15.336 0.026,16.133c-53.212,3.33 -52.745,-21.175 -55.731,-31.241Zm-1075.289,-81.604c16.587,2.445 24.745,-4.041 23.218,10.082c-1.488,13.753 -48.279,0.484 -48.745,19.855c-1.04,43.247 -11.499,63.533 38.33,66.757c11.246,0.728 16.281,16.411 -6.312,16.262c-90.109,-0.594 -29.206,-91.841 -58.96,-94.255c-21.298,-1.728 -27.317,4.605 -28.631,-7.574c-1.695,-15.712 35.403,-6.351 37.005,-19.933c2.174,-18.427 -6.595,-29.855 11.59,-26.321c9.854,1.915 5.115,5.763 7.115,25.884c1.612,16.225 9.1,8.261 25.39,9.243Zm1231.073,49.384c-0.124,-8.705 0.108,-17.412 -0.016,-26.116c-0.381,-26.855 -55.509,-8.63 -37.303,-27.365c12.041,-12.391 43.792,-3.855 47.466,-2.867c14.805,3.98 7.55,10.265 9.337,88.779c0.503,22.119 46.148,13.024 50.357,19.211c13.462,19.788 -115.603,12.234 -119.68,8.218c-15.531,-15.298 43.381,-12.245 46.651,-15.185c5.881,-5.287 2.74,-6.689 3.188,-44.676Zm-1666.655,62.922c-5.734,0.064 -67.559,6.352 -62.652,-10.038c3.797,-12.682 51.182,6.24 51.446,-20.287c0.391,-39.278 5.794,-72.804 -14.677,-73.468c-1.98,-0.064 -57.81,-1.875 -18.953,-15.941c1.879,-0.68 44.95,-3.657 50.466,5.296c7.9,12.822 -8.812,97.501 13.636,98.595c8.704,0.424 17.429,0.005 26.141,0.171c1.377,0.026 19.825,0.377 13.044,11.234c-5.079,8.131 -51.594,4.533 -58.452,4.438Zm268.716,-62.922c-0.047,-3.302 -0.56,-39.594 -8.232,-40.448c-26.298,-2.927 -26.613,-1.589 -28.376,-3.039c-18.345,-15.087 25.447,-14.088 27.949,-14.031c38.524,0.879 26.847,27.106 27.329,89.974c0.178,23.173 38.941,13.478 43.596,15.251c53.061,20.22 -104.168,16.631 -108.703,14.729c-30.412,-12.759 43.287,-17.713 43.385,-17.804c5.621,-5.178 2.618,-6.499 3.053,-44.632Zm-729.828,-370.193c-88.859,-9.725 -18.698,-120.543 28.606,-67.909c3.837,4.269 35.162,55.584 -28.606,67.909Zm1557.116,370.193c-0.089,62.643 -5.226,64.248 -10.052,62.67c-13.709,-4.482 -12.592,-110.63 -0.29,-114.801c4.263,-1.445 99.663,-7.996 84.142,12.879c-5.4,7.263 -61.836,4.595 -64.979,5.017c-8.134,1.092 -8.762,31.407 -8.821,34.234Zm574.765,-106.499c16.073,4.762 19.761,6.693 14.02,22.39c-7.08,19.358 -54.019,-8.827 -14.02,-22.39Zm-1677.167,0.006c40.77,14.907 -7.307,41.331 -14.323,22.504c-6.01,-16.128 -1.914,-18.02 14.323,-22.504Zm279.537,-0.001c39.911,14.843 -7.083,41.284 -14.058,22.385c-5.837,-15.814 -1.909,-17.682 14.058,-22.385Zm-2442.847,780.08c-47.565,3.578 -319.342,36.942 -609.945,-122.079c-28.016,-15.331 -36.235,-18.291 -23.67,-56.139c257.484,-775.589 250.253,-777.242 506.64,-1553.83c7.728,-23.409 15.496,-59.92 21.432,-44.953c14.044,35.416 8.944,36.644 146.207,453.24c30.831,93.574 374.696,1137.209 382.766,1170.54c6.285,25.955 -171.303,93.353 -182.65,97.352c-117.687,41.482 -185.157,48.141 -240.78,55.869Zm-103.661,-78.624c107.262,-4.197 226.723,-88.052 232.969,-237.06c5.767,-137.603 -103.666,-255.287 -246,-255.072c-304.138,0.459 -347.117,485.28 13.031,492.132Zm833.172,-361.344c-5.609,-17.795 -5.56,-17.685 -6.058,-19.219c-39.044,-120.12 -449.047,-1381.51 -491.991,-1500.207c-9.145,-25.276 -55.464,-72.946 -29.99,-63.027c55.723,21.696 487.181,154.287 663.739,640.501c187.174,515.446 -114.882,939.137 -126.113,946.108c-1.362,0.845 -2.961,-2.951 -4.323,-2.106l-5.264,-2.05Zm-1869.862,-701.49c19.788,-322.034 274.079,-735.184 705.461,-875.427c19.885,-6.465 -0.155,18.748 -11.152,50.712c-0.465,1.35 -364.295,1106.506 -395.971,1202.724c-106.214,322.632 -102.631,329.526 -113.222,329.094c-14.267,-0.583 -235.952,-326.875 -185.115,-707.103Z" style="fill:#fc6b01;"/></g></svg>