<svg xmlns="http://www.w3.org/2000/svg" xmlns:xlink="http://www.w3.org/1999/xlink" width="3250" zoomAndPan="magnify" viewBox="0 0 2437.5 2167.499963" height="2890" preserveAspectRatio="xMidYMid meet" version="1.0"><defs><g/><clipPath id="bc1075d665"><path d="M 270.800781 741.632812 L 855.449219 741.632812 L 855.449219 1326.28125 L 270.800781 1326.28125 Z M 270.800781 741.632812 " clip-rule="nonzero"/></clipPath><clipPath id="0673ac4aa5"><path d="M 270.800781 1033.957031 C 270.800781 1195.402344 401.679688 1326.28125 563.125 1326.28125 C 724.570312 1326.28125 855.449219 1195.402344 855.449219 1033.957031 C 855.449219 872.511719 724.570312 741.632812 563.125 741.632812 C 401.679688 741.632812 270.800781 872.511719 270.800781 1033.957031 Z M 270.800781 1033.957031 " clip-rule="nonzero"/></clipPath><clipPath id="a6bffdfcce"><path d="M 0.800781 0.632812 L 585.449219 0.632812 L 585.449219 585.28125 L 0.800781 585.28125 Z M 0.800781 0.632812 " clip-rule="nonzero"/></clipPath><clipPath id="b0f3819d9c"><path d="M 0.800781 292.957031 C 0.800781 454.402344 131.679688 585.28125 293.125 585.28125 C 454.570312 585.28125 585.449219 454.402344 585.449219 292.957031 C 585.449219 131.511719 454.570312 0.632812 293.125 0.632812 C 131.679688 0.632812 0.800781 131.511719 0.800781 292.957031 Z M 0.800781 292.957031 " clip-rule="nonzero"/></clipPath><clipPath id="41131b595a"><rect x="0" width="586" y="0" height="586"/></clipPath><clipPath id="b8be7c89ef"><rect x="0" width="736" y="0" height="954"/></clipPath><clipPath id="4cbbf4efed"><rect x="0" width="1330" y="0" height="213"/></clipPath></defs><g clip-path="url(#bc1075d665)"><g clip-path="url(#0673ac4aa5)"><g transform="matrix(1, 0, 0, 1, 270, 741)"><g clip-path="url(#41131b595a)"><g clip-path="url(#a6bffdfcce)"><g clip-path="url(#b0f3819d9c)"><path fill="#fd6c01" d="M 0.800781 585.28125 L 0.800781 0.632812 L 585.449219 0.632812 L 585.449219 585.28125 Z M 0.800781 585.28125 " fill-opacity="1" fill-rule="nonzero"/></g></g></g></g></g></g><g transform="matrix(1, 0, 0, 1, 196, 605)"><g clip-path="url(#b8be7c89ef)"><g fill="#000000" fill-opacity="1"><g transform="translate(39.972037, 816.302619)"><g><path d="M 349.824219 -656.457031 L 140.941406 -15.503906 L 94.425781 -22.890625 L 94.425781 -23.84375 L 118.269531 -23.84375 L 140.410156 -14.988281 C 135.230469 -2.035156 127.9375 8.695312 118.53125 17.203125 C 107.3125 27.355469 93.875 32.429688 78.210938 32.429688 C 71.550781 32.429688 65.0625 31.796875 58.75 30.535156 C 53.613281 29.507812 48.3125 28.3125 42.859375 26.949219 L 48.644531 -20.03125 L 49.597656 -20.03125 L 49.597656 3.816406 L 42.417969 26.554688 C 18.898438 19.125 2.246094 7.960938 -7.535156 -6.945312 C -18.40625 -23.507812 -20.269531 -42.730469 -13.132812 -64.621094 L 204.355469 -725.664062 C 208.789062 -739.863281 216.652344 -751.929688 227.941406 -761.863281 C 239.613281 -772.132812 253.3125 -778.195312 269.046875 -780.046875 L 271.832031 -756.363281 L 267.6875 -779.847656 C 279.136719 -781.867188 290.265625 -783.382812 301.082031 -784.398438 C 311.996094 -785.417969 320.6875 -785.929688 327.152344 -785.929688 C 333.621094 -785.929688 342.308594 -785.417969 353.222656 -784.398438 C 363.585938 -783.425781 374.265625 -782.292969 385.261719 -781 L 385.554688 -780.964844 L 385.847656 -780.921875 C 399.828125 -778.925781 412.960938 -772.011719 425.242188 -760.1875 C 435.617188 -750.195312 443.621094 -739.972656 449.25 -729.515625 L 450.257812 -727.648438 L 559.171875 -395.140625 L 667.429688 -64.652344 C 674.148438 -42.582031 672.128906 -23.347656 661.367188 -6.945312 C 651.609375 7.921875 635.15625 19.074219 612.007812 26.515625 L 611.257812 26.757812 L 610.492188 26.949219 C 605.265625 28.253906 600.515625 29.402344 596.242188 30.386719 C 590.34375 31.75 583.945312 32.429688 577.050781 32.429688 C 562.429688 32.429688 549.261719 27.589844 537.539062 17.90625 C 526.714844 8.960938 518.988281 -2.441406 514.367188 -16.304688 L 536.988281 -23.84375 L 560.835938 -23.84375 L 560.835938 -22.890625 L 514.328125 -15.472656 L 304.492188 -656.425781 L 327.152344 -663.84375 Z M 327.101562 -740.640625 L 559.652344 -30.308594 L 536.988281 -22.890625 L 513.144531 -22.890625 L 513.144531 -23.84375 L 559.609375 -31.386719 C 561.347656 -26.171875 564.117188 -21.996094 567.914062 -18.859375 C 570.820312 -16.460938 573.863281 -15.261719 577.050781 -15.261719 C 580.324219 -15.261719 583.148438 -15.535156 585.515625 -16.082031 C 589.511719 -17.003906 593.980469 -18.082031 598.925781 -19.316406 L 604.710938 3.816406 L 597.414062 -18.886719 C 609.871094 -22.890625 617.898438 -27.632812 621.496094 -33.113281 C 624.085938 -37.058594 624.289062 -42.625 622.109375 -49.804688 L 513.851562 -380.296875 L 405.597656 -710.789062 L 428.257812 -718.210938 L 407.261719 -706.90625 C 403.988281 -712.984375 398.957031 -719.292969 392.164062 -725.835938 C 387.277344 -730.539062 382.921875 -733.167969 379.101562 -733.710938 L 382.472656 -757.316406 L 379.6875 -733.636719 C 369.0625 -734.886719 358.757812 -735.976562 348.773438 -736.914062 C 339.339844 -737.800781 332.132812 -738.242188 327.152344 -738.242188 C 322.175781 -738.242188 314.96875 -737.800781 305.535156 -736.914062 C 296.003906 -736.019531 286.152344 -734.675781 275.976562 -732.882812 L 275.300781 -732.761719 L 274.621094 -732.683594 C 268.734375 -731.988281 263.675781 -729.78125 259.449219 -726.0625 C 254.84375 -722.011719 251.578125 -716.910156 249.65625 -710.757812 L 32.207031 -49.835938 C 29.808594 -42.472656 29.851562 -36.898438 32.335938 -33.113281 C 35.90625 -27.671875 44.054688 -22.941406 56.777344 -18.921875 L 49.597656 27.660156 L 48.644531 27.660156 L 48.644531 3.816406 L 54.425781 -19.316406 C 59.148438 -18.136719 63.707031 -17.109375 68.105469 -16.226562 C 71.328125 -15.582031 74.699219 -15.261719 78.210938 -15.261719 C 81.625 -15.261719 84.398438 -16.226562 86.535156 -18.160156 C 90.484375 -21.730469 93.683594 -26.578125 96.132812 -32.699219 L 142.117188 -23.84375 L 142.117188 -22.890625 L 118.269531 -22.890625 L 95.601562 -30.28125 L 304.480469 -671.234375 Z M 422.535156 -228.910156 C 422.535156 -201.980469 413.050781 -179.03125 394.089844 -160.070312 C 375.125 -141.105469 352.179688 -131.625 325.246094 -131.625 C 298.207031 -131.625 275.355469 -141.167969 256.691406 -160.257812 C 238.171875 -179.199219 228.910156 -202.085938 228.910156 -228.910156 C 228.910156 -255.738281 238.171875 -278.625 256.691406 -297.566406 C 275.355469 -316.65625 298.207031 -326.199219 325.246094 -326.199219 C 352.179688 -326.199219 375.125 -316.71875 394.089844 -297.753906 C 413.050781 -278.792969 422.535156 -255.84375 422.535156 -228.910156 Z M 374.84375 -228.910156 C 374.84375 -242.675781 370.019531 -254.382812 360.367188 -264.03125 C 350.714844 -273.683594 339.007812 -278.507812 325.246094 -278.507812 C 311.585938 -278.507812 300.101562 -273.746094 290.789062 -264.222656 C 281.332031 -254.550781 276.601562 -242.78125 276.601562 -228.910156 C 276.601562 -215.042969 281.332031 -203.273438 290.789062 -193.601562 C 300.101562 -184.078125 311.585938 -179.316406 325.246094 -179.316406 C 339.007812 -179.316406 350.714844 -184.140625 360.367188 -193.789062 C 370.019531 -203.441406 374.84375 -215.148438 374.84375 -228.910156 Z M 374.84375 -228.910156 "/></g></g></g><g fill="#000000" fill-opacity="1"><g transform="translate(39.972037, 816.302619)"><g><path d="M 327.15625 -663.84375 L 118.265625 -22.890625 L 118.265625 -23.84375 C 114.453125 -14.300781 109.207031 -6.507812 102.53125 -0.46875 C 95.851562 5.5625 87.75 8.578125 78.21875 8.578125 C 73.125 8.578125 68.191406 8.097656 63.421875 7.140625 C 58.660156 6.191406 53.734375 5.082031 48.640625 3.8125 L 49.59375 3.8125 C 13.351562 -7.632812 0 -27.984375 9.53125 -57.234375 L 227 -718.203125 C 230.175781 -728.378906 235.738281 -736.960938 243.6875 -743.953125 C 251.644531 -750.953125 261.023438 -755.085938 271.828125 -756.359375 C 282.640625 -758.265625 293.128906 -759.691406 303.296875 -760.640625 C 313.472656 -761.597656 321.425781 -762.078125 327.15625 -762.078125 C 332.875 -762.078125 340.820312 -761.597656 351 -760.640625 C 361.175781 -759.691406 371.664062 -758.582031 382.46875 -757.3125 C 391.375 -756.039062 400.117188 -751.269531 408.703125 -743 C 417.285156 -734.738281 423.800781 -726.472656 428.25 -718.203125 C 463.863281 -608.835938 499.953125 -498.675781 536.515625 -387.71875 C 573.078125 -276.757812 609.160156 -166.597656 644.765625 -57.234375 C 653.671875 -27.984375 640.316406 -7.632812 604.703125 3.8125 C 599.617188 5.082031 595.007812 6.191406 590.875 7.140625 C 586.738281 8.097656 582.128906 8.578125 577.046875 8.578125 C 568.140625 8.578125 560.03125 5.5625 552.71875 -0.46875 C 545.40625 -6.507812 540.160156 -14.300781 536.984375 -23.84375 L 536.984375 -22.890625 Z M 398.6875 -228.90625 C 398.6875 -208.5625 391.53125 -191.234375 377.21875 -176.921875 C 362.914062 -162.617188 345.59375 -155.46875 325.25 -155.46875 C 304.894531 -155.46875 287.722656 -162.617188 273.734375 -176.921875 C 259.742188 -191.234375 252.75 -208.5625 252.75 -228.90625 C 252.75 -249.257812 259.742188 -266.585938 273.734375 -280.890625 C 287.722656 -295.203125 304.894531 -302.359375 325.25 -302.359375 C 345.59375 -302.359375 362.914062 -295.203125 377.21875 -280.890625 C 391.53125 -266.585938 398.6875 -249.257812 398.6875 -228.90625 Z M 398.6875 -228.90625 "/></g></g></g></g></g><g transform="matrix(1, 0, 0, 1, 918, 925)"><g clip-path="url(#4cbbf4efed)"><g fill="#000000" fill-opacity="1"><g transform="translate(17.897657, 182.230243)"><g><path d="M 79.769531 -144.171875 L 33.632812 -2.609375 L 18.222656 -5.054688 L 18.222656 -5.265625 L 26.121094 -5.265625 L 33.457031 -2.332031 C 32.160156 0.90625 30.324219 3.601562 27.945312 5.753906 C 24.96875 8.449219 21.410156 9.796875 17.273438 9.796875 C 15.628906 9.796875 14.023438 9.640625 12.460938 9.328125 C 11.285156 9.089844 10.074219 8.816406 8.828125 8.507812 L 10.742188 -7.058594 L 10.953125 -7.058594 L 10.953125 0.84375 L 8.574219 8.375 C 2.785156 6.546875 -1.363281 3.726562 -3.867188 -0.0898438 C -6.730469 -4.453125 -7.242188 -9.453125 -5.402344 -15.089844 L 42.632812 -161.097656 C 43.75 -164.679688 45.742188 -167.726562 48.605469 -170.246094 C 51.59375 -172.878906 55.097656 -174.429688 59.117188 -174.902344 L 60.039062 -167.054688 L 58.667969 -174.835938 C 61.265625 -175.292969 63.792969 -175.640625 66.253906 -175.871094 C 68.746094 -176.101562 70.746094 -176.21875 72.257812 -176.21875 C 73.769531 -176.21875 75.769531 -176.101562 78.261719 -175.871094 C 80.570312 -175.652344 82.949219 -175.402344 85.398438 -175.113281 L 85.496094 -175.101562 L 85.59375 -175.085938 C 89.242188 -174.566406 92.628906 -172.800781 95.75 -169.796875 C 98.238281 -167.398438 100.167969 -164.925781 101.542969 -162.375 L 101.875 -161.757812 L 126.003906 -88.09375 L 149.914062 -15.097656 C 151.652344 -9.402344 151.105469 -4.398438 148.277344 -0.0898438 C 145.78125 3.710938 141.679688 6.53125 135.976562 8.363281 L 135.730469 8.445312 L 135.476562 8.507812 C 134.304688 8.800781 133.242188 9.054688 132.28125 9.277344 C 130.785156 9.625 129.175781 9.796875 127.453125 9.796875 C 123.589844 9.796875 120.125 8.527344 117.046875 5.984375 C 114.269531 3.6875 112.289062 0.769531 111.109375 -2.769531 L 118.601562 -5.265625 L 126.503906 -5.265625 L 126.503906 -5.054688 L 111.09375 -2.597656 L 64.75 -144.164062 L 72.257812 -146.621094 Z M 72.242188 -172.066406 L 126.109375 -7.515625 L 118.601562 -5.054688 L 110.703125 -5.054688 L 110.703125 -5.265625 L 126.097656 -7.765625 C 126.324219 -7.089844 126.660156 -6.566406 127.109375 -6.195312 C 127.265625 -6.066406 127.378906 -6.003906 127.453125 -6.003906 C 127.976562 -6.003906 128.402344 -6.042969 128.730469 -6.117188 C 129.59375 -6.316406 130.566406 -6.550781 131.644531 -6.820312 L 133.558594 0.84375 L 131.144531 -6.679688 C 133.304688 -7.375 134.613281 -8.066406 135.066406 -8.757812 C 135.1875 -8.941406 135.132812 -9.417969 134.902344 -10.179688 L 87.082031 -156.171875 L 94.585938 -158.628906 L 87.632812 -154.882812 C 87.039062 -155.984375 86.09375 -157.160156 84.789062 -158.417969 C 84.117188 -159.0625 83.640625 -159.40625 83.359375 -159.445312 L 84.476562 -167.265625 L 83.554688 -159.421875 C 81.226562 -159.695312 78.972656 -159.933594 76.785156 -160.136719 C 74.785156 -160.324219 73.273438 -160.421875 72.257812 -160.421875 C 71.238281 -160.421875 69.730469 -160.324219 67.726562 -160.136719 C 65.695312 -159.949219 63.589844 -159.660156 61.410156 -159.277344 L 61.1875 -159.238281 L 60.960938 -159.210938 C 60.207031 -159.121094 59.566406 -158.847656 59.042969 -158.386719 C 58.394531 -157.816406 57.929688 -157.074219 57.640625 -156.160156 L 9.617188 -10.191406 C 9.414062 -9.570312 9.328125 -9.097656 9.351562 -8.769531 L 9.34375 -8.757812 C 9.464844 -8.574219 9.738281 -8.34375 10.160156 -8.074219 C 10.941406 -7.574219 12 -7.113281 13.332031 -6.691406 L 10.953125 8.742188 L 10.742188 8.742188 L 10.742188 0.84375 L 12.660156 -6.820312 C 13.660156 -6.570312 14.628906 -6.351562 15.558594 -6.167969 C 16.101562 -6.058594 16.671875 -6.003906 17.273438 -6.003906 C 17.355469 -6.003906 17.417969 -6.007812 17.460938 -6.015625 L 17.4375 -6.007812 C 17.386719 -5.988281 17.359375 -5.972656 17.347656 -5.964844 C 17.917969 -6.480469 18.398438 -7.226562 18.789062 -8.199219 L 34.023438 -5.265625 L 34.023438 -5.054688 L 26.121094 -5.054688 L 18.609375 -7.503906 L 64.746094 -149.070312 Z M 95.957031 -50.558594 C 95.957031 -43.882812 93.605469 -38.195312 88.902344 -33.492188 C 84.199219 -28.789062 78.511719 -26.4375 71.835938 -26.4375 C 65.125 -26.4375 59.449219 -28.808594 54.8125 -33.554688 C 50.222656 -38.25 47.925781 -43.917969 47.925781 -50.558594 C 47.925781 -57.199219 50.222656 -62.867188 54.8125 -67.5625 C 59.449219 -72.308594 65.125 -74.679688 71.835938 -74.679688 C 78.511719 -74.679688 84.199219 -72.328125 88.902344 -67.625 C 93.605469 -62.925781 95.957031 -57.234375 95.957031 -50.558594 Z M 80.15625 -50.558594 C 80.15625 -52.871094 79.347656 -54.835938 77.730469 -56.453125 C 76.113281 -58.070312 74.148438 -58.878906 71.835938 -58.878906 C 69.558594 -58.878906 67.648438 -58.09375 66.109375 -56.515625 C 64.519531 -54.890625 63.726562 -52.90625 63.726562 -50.558594 C 63.726562 -48.210938 64.519531 -46.226562 66.109375 -44.601562 C 67.648438 -43.027344 69.558594 -42.238281 71.835938 -42.238281 C 74.148438 -42.238281 76.113281 -43.046875 77.730469 -44.664062 C 79.347656 -46.28125 80.15625 -48.246094 80.15625 -50.558594 Z M 80.15625 -50.558594 "/></g></g></g><g fill="#000000" fill-opacity="1"><g transform="translate(206.643668, 182.230243)"><g><path d="M 86.265625 -8.425781 C 86.265625 -2.550781 84.257812 2.019531 80.246094 5.285156 C 76.722656 8.152344 71.953125 9.585938 65.9375 9.585938 C 59.921875 9.585938 55.152344 8.152344 51.628906 5.285156 C 47.617188 2.019531 45.609375 -2.550781 45.609375 -8.425781 L 45.609375 -64.464844 L 53.507812 -64.464844 L 46.515625 -60.785156 L -0.765625 -150.710938 L -0.851562 -150.894531 C -2.179688 -153.769531 -2.84375 -156.769531 -2.84375 -159.894531 C -2.84375 -163.761719 -1.679688 -167.167969 0.648438 -170.113281 C 2.695312 -172.703125 5.550781 -174.75 9.210938 -176.257812 L 12.21875 -168.953125 L 12.21875 -161.050781 L 12.007812 -161.050781 L 9.308594 -176.375 C 13.269531 -177.816406 16.628906 -178.539062 19.382812 -178.539062 C 22.769531 -178.539062 25.816406 -177.65625 28.53125 -175.890625 C 31.066406 -174.246094 33.140625 -171.917969 34.761719 -168.90625 L 73.121094 -96.824219 L 66.148438 -93.113281 L 59.160156 -96.800781 L 68.21875 -113.96875 L 78.007812 -132.601562 L 87.796875 -151.332031 C 91.042969 -157.542969 94.148438 -163.398438 97.113281 -168.90625 L 97.289062 -169.234375 L 97.496094 -169.542969 C 99.132812 -171.996094 100.988281 -173.992188 103.066406 -175.523438 C 105.796875 -177.53125 109.007812 -178.539062 112.703125 -178.539062 C 115.734375 -178.539062 119.074219 -177.769531 122.722656 -176.234375 L 119.65625 -161.050781 L 119.445312 -161.050781 L 119.445312 -168.953125 L 122.558594 -176.214844 C 126.234375 -174.636719 129.101562 -172.554688 131.160156 -169.972656 C 133.53125 -166.988281 134.71875 -163.558594 134.71875 -159.683594 C 134.71875 -158.4375 134.617188 -157.160156 134.417969 -155.847656 C 134.128906 -153.96875 133.460938 -152.117188 132.414062 -150.285156 L 125.554688 -154.207031 L 132.621094 -150.671875 C 131.339844 -148.109375 129.742188 -144.984375 127.828125 -141.296875 L 119.808594 -125.996094 L 106.429688 -100.5 L 85.371094 -60.175781 L 78.367188 -63.832031 L 86.265625 -63.832031 Z M 70.464844 -8.425781 L 70.464844 -65.769531 L 92.4375 -107.84375 L 105.8125 -133.332031 L 113.804688 -148.578125 C 115.679688 -152.191406 117.242188 -155.246094 118.488281 -157.738281 L 118.585938 -157.933594 L 118.695312 -158.125 C 118.761719 -158.238281 118.808594 -158.332031 118.832031 -158.398438 C 118.820312 -158.371094 118.8125 -158.320312 118.800781 -158.25 C 118.878906 -158.765625 118.917969 -159.242188 118.917969 -159.683594 C 118.917969 -160.28125 118.058594 -160.953125 116.335938 -161.691406 L 119.445312 -176.851562 L 119.65625 -176.851562 L 119.65625 -168.953125 L 116.589844 -161.671875 C 114.902344 -162.382812 113.609375 -162.738281 112.703125 -162.738281 C 112.488281 -162.738281 112.335938 -162.722656 112.246094 -162.699219 C 112.304688 -162.714844 112.367188 -162.75 112.441406 -162.800781 C 111.851562 -162.367188 111.25 -161.695312 110.640625 -160.777344 L 104.066406 -165.160156 L 111.023438 -161.414062 C 108.089844 -155.964844 105.015625 -150.167969 101.800781 -144.015625 L 91.996094 -125.25 L 82.195312 -106.597656 L 66.179688 -76.242188 L 20.851562 -161.414062 C 20.507812 -162.054688 20.195312 -162.464844 19.921875 -162.644531 C 19.824219 -162.707031 19.644531 -162.738281 19.382812 -162.738281 C 18.484375 -162.738281 16.925781 -162.335938 14.707031 -161.527344 L 12.007812 -168.953125 L 12.007812 -176.851562 L 12.21875 -176.851562 L 15.226562 -161.648438 C 14.109375 -161.1875 13.382812 -160.742188 13.042969 -160.3125 C 12.984375 -160.238281 12.957031 -160.097656 12.957031 -159.894531 C 12.957031 -159.082031 13.136719 -158.292969 13.492188 -157.515625 L 6.320312 -154.207031 L 13.3125 -157.882812 L 61.410156 -66.414062 L 61.410156 -8.425781 C 61.410156 -7.777344 61.472656 -7.300781 61.59375 -6.996094 L 61.601562 -6.972656 C 61.769531 -6.832031 62.09375 -6.699219 62.566406 -6.570312 C 63.445312 -6.332031 64.566406 -6.214844 65.9375 -6.214844 C 67.308594 -6.214844 68.429688 -6.332031 69.308594 -6.570312 C 69.78125 -6.699219 70.105469 -6.832031 70.273438 -6.972656 L 70.28125 -6.996094 C 70.40625 -7.300781 70.464844 -7.777344 70.464844 -8.425781 Z M 70.464844 -8.425781 "/></g></g></g><g fill="#000000" fill-opacity="1"><g transform="translate(381.908048, 182.230243)"><g><path d="M 76.472656 -61.410156 L 60.25 -61.410156 C 57.792969 -61.410156 55.535156 -61.933594 53.476562 -62.980469 C 51.382812 -64.046875 49.625 -65.589844 48.207031 -67.605469 C 45.914062 -70.867188 44.765625 -74.945312 44.765625 -79.839844 C 44.765625 -85.3125 46.105469 -89.671875 48.78125 -92.921875 C 51.835938 -96.628906 56.078125 -98.484375 61.511719 -98.484375 L 86.160156 -98.484375 C 88.648438 -98.484375 90.15625 -98.855469 90.6875 -99.601562 C 91.8125 -101.175781 92.375 -102.875 92.375 -104.699219 L 92.375 -131.875 C 92.375 -133.699219 91.8125 -135.398438 90.6875 -136.972656 C 90.15625 -137.71875 88.648438 -138.089844 86.160156 -138.089844 L 41.710938 -138.089844 L 41.710938 -145.988281 L 49.609375 -145.988281 L 49.609375 -8.636719 C 49.609375 -2.761719 47.605469 1.808594 43.589844 5.074219 C 40.066406 7.941406 35.296875 9.375 29.28125 9.375 C 23.265625 9.375 18.5 7.941406 14.976562 5.074219 C 10.960938 1.808594 8.953125 -2.761719 8.953125 -8.636719 L 8.953125 -154.625 C 8.953125 -162.542969 11.453125 -168.125 16.453125 -171.367188 C 20.355469 -173.898438 24.914062 -175.167969 30.125 -175.167969 L 91.429688 -175.167969 C 96.078125 -175.167969 100.832031 -174.210938 105.691406 -172.300781 C 110.128906 -170.558594 114.398438 -168.347656 118.503906 -165.664062 L 140.699219 -151.152344 L 113.96875 -151.152344 L 113.96875 -159.050781 L 118.628906 -165.429688 C 123.386719 -161.953125 127.035156 -157.449219 129.574219 -151.917969 C 132.019531 -146.589844 133.246094 -140.539062 133.246094 -133.769531 L 133.246094 -103.015625 C 133.246094 -88.984375 128.386719 -78.371094 118.671875 -71.175781 C 116.835938 -69.839844 114.90625 -68.605469 112.878906 -67.472656 C 111.085938 -66.46875 109.253906 -65.464844 107.390625 -64.460938 L 103.644531 -71.414062 L 110.402344 -75.507812 L 144.109375 -19.894531 C 144.789062 -18.761719 145.421875 -17.40625 146.011719 -15.835938 C 146.769531 -13.816406 147.148438 -11.980469 147.148438 -10.324219 C 147.148438 -4.085938 143.558594 1.355469 136.378906 6 L 124.1875 13.890625 L 124.1875 -0.84375 L 132.085938 -0.84375 L 136.195312 5.90625 C 131.703125 8.640625 127.59375 10.007812 123.871094 10.007812 C 120.75 10.007812 117.902344 9.207031 115.328125 7.605469 C 112.964844 6.132812 110.964844 4.054688 109.328125 1.367188 L 121.660156 -8.324219 L 121.871094 -8.113281 L 116.285156 -2.527344 L 109.5 1.519531 L 69.683594 -65.261719 L 76.472656 -69.308594 Z M 80.957031 -77.207031 L 123.070312 -6.574219 L 110.699219 3.058594 L 110.488281 2.847656 L 116.074219 -2.738281 L 122.824219 -6.847656 C 123.152344 -6.304688 123.4375 -5.960938 123.667969 -5.8125 C 123.691406 -5.800781 123.757812 -5.792969 123.871094 -5.792969 C 124.640625 -5.792969 126.007812 -6.390625 127.976562 -7.589844 L 139.984375 -14.898438 L 139.984375 -0.632812 L 132.085938 -0.632812 L 127.792969 -7.265625 C 129.378906 -8.289062 130.480469 -9.222656 131.105469 -10.066406 C 131.246094 -10.257812 131.335938 -10.40625 131.371094 -10.507812 C 131.355469 -10.464844 131.347656 -10.402344 131.347656 -10.324219 C 131.347656 -10.074219 131.363281 -9.886719 131.394531 -9.757812 C 131.367188 -9.875 131.308594 -10.050781 131.21875 -10.289062 C 130.964844 -10.960938 130.757812 -11.433594 130.597656 -11.707031 L 92.582031 -74.429688 L 99.902344 -78.371094 C 101.6875 -79.332031 103.441406 -80.296875 105.160156 -81.257812 C 106.640625 -82.085938 108.011719 -82.960938 109.265625 -83.871094 C 114.71875 -87.910156 117.445312 -94.292969 117.445312 -103.015625 L 117.445312 -133.769531 C 117.445312 -138.238281 116.703125 -142.089844 115.214844 -145.328125 C 113.820312 -148.363281 111.851562 -150.8125 109.308594 -152.671875 L 89.769531 -166.949219 L 114.179688 -166.949219 L 114.179688 -159.050781 L 109.855469 -152.4375 C 106.65625 -154.53125 103.34375 -156.25 99.914062 -157.597656 C 96.910156 -158.777344 94.082031 -159.367188 91.429688 -159.367188 L 30.125 -159.367188 C 28.03125 -159.367188 26.339844 -158.949219 25.050781 -158.109375 C 25.15625 -158.179688 25.238281 -158.253906 25.300781 -158.335938 C 25.28125 -158.308594 25.25 -158.234375 25.199219 -158.105469 C 24.902344 -157.335938 24.753906 -156.175781 24.753906 -154.625 L 24.753906 -8.636719 C 24.753906 -7.988281 24.816406 -7.511719 24.941406 -7.207031 L 24.945312 -7.179688 C 25.113281 -7.042969 25.4375 -6.910156 25.914062 -6.78125 C 26.789062 -6.542969 27.914062 -6.425781 29.28125 -6.425781 C 30.652344 -6.425781 31.777344 -6.542969 32.652344 -6.78125 C 33.128906 -6.910156 33.449219 -7.042969 33.617188 -7.179688 L 33.625 -7.207031 C 33.75 -7.511719 33.8125 -7.988281 33.8125 -8.636719 L 33.8125 -153.890625 L 86.160156 -153.890625 C 94.066406 -153.890625 99.863281 -151.3125 103.542969 -146.15625 C 106.632812 -141.835938 108.175781 -137.074219 108.175781 -131.875 L 108.175781 -104.699219 C 108.175781 -99.5 106.632812 -94.738281 103.542969 -90.417969 C 99.863281 -85.261719 94.066406 -82.683594 86.160156 -82.683594 L 61.511719 -82.683594 C 61.066406 -82.683594 60.761719 -82.652344 60.605469 -82.589844 C 60.738281 -82.644531 60.863281 -82.742188 60.976562 -82.878906 L 60.992188 -82.890625 C 60.941406 -82.78125 60.886719 -82.636719 60.835938 -82.449219 C 60.65625 -81.792969 60.566406 -80.921875 60.566406 -79.839844 C 60.566406 -78.277344 60.753906 -77.230469 61.128906 -76.699219 C 61.042969 -76.820312 60.882812 -76.9375 60.648438 -77.058594 C 60.453125 -77.160156 60.320312 -77.207031 60.25 -77.207031 Z M 80.957031 -77.207031 "/></g></g></g><g fill="#000000" fill-opacity="1"><g transform="translate(568.126282, 182.230243)"><g><path d="M 96.484375 -175.167969 C 101.132812 -175.167969 105.886719 -174.210938 110.75 -172.300781 C 115.183594 -170.558594 119.453125 -168.347656 123.558594 -165.664062 L 145.753906 -151.152344 L 119.023438 -151.152344 L 119.023438 -159.050781 L 123.6875 -165.429688 C 128.445312 -161.953125 132.09375 -157.449219 134.632812 -151.917969 C 137.078125 -146.589844 138.300781 -140.539062 138.300781 -133.769531 L 138.300781 -33.707031 C 138.300781 -19.675781 133.441406 -9.066406 123.726562 -1.867188 C 119.476562 1.238281 115.09375 3.652344 110.570312 5.378906 C 105.800781 7.199219 101.105469 8.109375 96.484375 8.109375 L 50.558594 8.109375 C 45.9375 8.109375 41.242188 7.199219 36.472656 5.378906 C 31.949219 3.652344 27.578125 1.246094 23.355469 -1.835938 L 23.277344 -1.894531 L 23.203125 -1.953125 C 18.546875 -5.535156 14.964844 -9.96875 12.453125 -15.257812 C 9.980469 -20.472656 8.742188 -26.621094 8.742188 -33.707031 L 8.742188 -133.769531 C 8.742188 -140.539062 9.964844 -146.589844 12.410156 -151.917969 C 14.949219 -157.449219 18.597656 -161.953125 23.355469 -165.429688 L 28.019531 -159.050781 L 28.019531 -151.152344 L 1.289062 -151.152344 L 23.484375 -165.664062 C 27.589844 -168.347656 31.859375 -170.558594 36.292969 -172.300781 C 41.15625 -174.210938 45.910156 -175.167969 50.558594 -175.167969 Z M 96.484375 -159.367188 L 50.558594 -159.367188 C 47.90625 -159.367188 45.074219 -158.777344 42.070312 -157.597656 C 38.644531 -156.25 35.328125 -154.53125 32.128906 -152.4375 L 27.808594 -159.050781 L 27.808594 -166.949219 L 52.21875 -166.949219 L 32.679688 -152.671875 C 30.136719 -150.8125 28.164062 -148.363281 26.769531 -145.328125 C 25.285156 -142.089844 24.542969 -138.238281 24.542969 -133.769531 L 24.542969 -33.707031 C 24.542969 -28.992188 25.269531 -25.101562 26.730469 -22.03125 C 28.152344 -19.03125 30.1875 -16.515625 32.835938 -14.476562 L 28.019531 -8.214844 L 32.679688 -14.59375 C 35.761719 -12.34375 38.902344 -10.605469 42.105469 -9.382812 C 45.0625 -8.253906 47.878906 -7.6875 50.558594 -7.6875 L 96.484375 -7.6875 C 99.164062 -7.6875 101.980469 -8.253906 104.9375 -9.382812 C 108.140625 -10.605469 111.269531 -12.332031 114.324219 -14.5625 C 119.773438 -18.601562 122.5 -24.984375 122.5 -33.707031 L 122.5 -133.769531 C 122.5 -138.238281 121.757812 -142.089844 120.273438 -145.328125 C 118.878906 -148.363281 116.90625 -150.8125 114.363281 -152.671875 L 94.824219 -166.949219 L 119.234375 -166.949219 L 119.234375 -159.050781 L 114.914062 -152.4375 C 111.714844 -154.53125 108.398438 -156.25 104.972656 -157.597656 C 101.96875 -158.777344 99.136719 -159.367188 96.484375 -159.367188 Z M 91.21875 -28.964844 C 93.703125 -28.964844 95.210938 -29.339844 95.742188 -30.082031 C 96.867188 -31.65625 97.429688 -33.425781 97.429688 -35.390625 L 97.429688 -131.875 C 97.429688 -133.699219 96.867188 -135.398438 95.742188 -136.972656 C 95.210938 -137.71875 93.703125 -138.089844 91.21875 -138.089844 L 55.824219 -138.089844 C 53.339844 -138.089844 51.832031 -137.71875 51.300781 -136.972656 C 50.175781 -135.398438 49.609375 -133.699219 49.609375 -131.875 L 49.609375 -35.390625 C 49.609375 -33.425781 50.175781 -31.65625 51.300781 -30.082031 C 51.832031 -29.339844 53.339844 -28.964844 55.824219 -28.964844 Z M 91.21875 -13.167969 L 55.824219 -13.167969 C 47.917969 -13.167969 42.125 -15.742188 38.441406 -20.898438 C 35.355469 -25.222656 33.8125 -30.050781 33.8125 -35.390625 L 33.8125 -131.875 C 33.8125 -137.074219 35.355469 -141.835938 38.441406 -146.15625 C 42.125 -151.3125 47.917969 -153.890625 55.824219 -153.890625 L 91.21875 -153.890625 C 99.125 -153.890625 104.917969 -151.3125 108.601562 -146.15625 C 111.6875 -141.835938 113.230469 -137.074219 113.230469 -131.875 L 113.230469 -35.390625 C 113.230469 -30.050781 111.6875 -25.222656 108.601562 -20.898438 C 104.917969 -15.742188 99.125 -13.167969 91.21875 -13.167969 Z M 91.21875 -13.167969 "/></g></g></g><g fill="#000000" fill-opacity="1"><g transform="translate(757.714966, 182.230243)"><g><path d="M 145.988281 -176.21875 C 151.484375 -176.21875 157.367188 -174.984375 163.636719 -172.507812 C 167.648438 -170.902344 170.722656 -168.484375 172.859375 -165.246094 C 174.957031 -162.066406 176.007812 -158.316406 176.007812 -153.996094 L 176.007812 -8.847656 C 176.007812 -2.972656 174.003906 1.597656 169.988281 4.863281 C 166.464844 7.730469 161.695312 9.164062 155.679688 9.164062 C 149.664062 9.164062 144.894531 7.730469 141.371094 4.863281 C 137.359375 1.597656 135.351562 -2.972656 135.351562 -8.847656 L 135.351562 -117.128906 L 143.25 -117.128906 L 142.4375 -109.269531 L 136.328125 -109.902344 L 137.140625 -117.761719 L 144.691406 -115.4375 L 136.265625 -88.050781 L 111.003906 -3.839844 C 109.628906 0.53125 107.175781 3.828125 103.640625 6.054688 C 100.402344 8.09375 96.480469 9.058594 91.875 8.949219 L 91.761719 8.949219 L 91.644531 8.941406 C 87.582031 8.726562 83.976562 7.613281 80.835938 5.59375 C 77.21875 3.265625 74.78125 -0.03125 73.527344 -4.300781 L 58.390625 -53.28125 C 55.304688 -62.953125 52.214844 -72.824219 49.117188 -82.890625 L 38.996094 -116.3125 L 46.554688 -118.601562 L 47.636719 -110.777344 L 41.527344 -109.933594 L 40.449219 -117.761719 L 48.347656 -117.761719 L 48.347656 -8.847656 C 48.347656 -2.972656 46.339844 1.597656 42.324219 4.863281 C 38.800781 7.730469 34.03125 9.164062 28.019531 9.164062 C 22.003906 9.164062 17.234375 7.730469 13.710938 4.863281 C 9.695312 1.597656 7.6875 -2.972656 7.6875 -8.847656 L 7.6875 -153.996094 C 7.6875 -158.246094 8.738281 -161.960938 10.839844 -165.140625 C 12.9375 -168.320312 15.941406 -170.746094 19.851562 -172.421875 C 26.167969 -174.984375 32.269531 -176.179688 38.152344 -176.003906 L 37.917969 -168.109375 L 37.917969 -176.007812 C 40.675781 -176.007812 43.488281 -175.648438 46.367188 -174.929688 C 49.246094 -174.210938 51.957031 -173.167969 54.5 -171.808594 C 57.207031 -170.359375 59.621094 -168.523438 61.746094 -166.300781 C 63.996094 -163.949219 65.730469 -161.246094 66.953125 -158.191406 L 67.09375 -157.84375 L 100.273438 -44.777344 L 92.691406 -42.554688 L 85.101562 -44.742188 C 87.480469 -52.996094 90 -61.957031 92.660156 -71.617188 L 100.882812 -101.132812 L 109.207031 -130.746094 L 117.039062 -158.53125 L 117.242188 -159.003906 C 118.484375 -161.902344 120.234375 -164.480469 122.496094 -166.742188 C 124.59375 -168.839844 126.964844 -170.597656 129.621094 -172.019531 C 132.144531 -173.371094 134.800781 -174.40625 137.589844 -175.125 C 140.414062 -175.855469 143.214844 -176.21875 145.988281 -176.21875 Z M 145.988281 -160.421875 C 144.550781 -160.421875 143.066406 -160.222656 141.539062 -159.828125 C 139.972656 -159.425781 138.488281 -158.84375 137.082031 -158.089844 C 135.800781 -157.40625 134.664062 -156.566406 133.667969 -155.570312 C 132.839844 -154.742188 132.207031 -153.8125 131.761719 -152.777344 L 124.5 -155.890625 L 132.105469 -153.746094 L 124.417969 -126.472656 L 116.101562 -96.890625 L 107.890625 -67.421875 C 105.214844 -57.699219 102.679688 -48.683594 100.28125 -40.367188 L 92.761719 -14.261719 L 52.039062 -153.035156 L 59.617188 -155.257812 L 52.28125 -152.324219 C 51.820312 -153.484375 51.167969 -154.503906 50.328125 -155.378906 C 49.363281 -156.390625 48.265625 -157.222656 47.039062 -157.878906 C 45.648438 -158.625 44.148438 -159.199219 42.535156 -159.601562 C 40.914062 -160.007812 39.378906 -160.210938 37.917969 -160.210938 L 37.6875 -160.210938 C 34.019531 -160.320312 30.148438 -159.550781 26.074219 -157.898438 C 25.066406 -157.46875 24.382812 -156.980469 24.023438 -156.433594 C 23.667969 -155.894531 23.488281 -155.082031 23.488281 -153.996094 L 23.488281 -8.847656 C 23.488281 -8.199219 23.550781 -7.722656 23.675781 -7.417969 L 23.683594 -7.390625 C 23.851562 -7.253906 24.171875 -7.121094 24.648438 -6.992188 C 25.523438 -6.753906 26.648438 -6.636719 28.019531 -6.636719 C 29.386719 -6.636719 30.511719 -6.753906 31.386719 -6.992188 C 31.863281 -7.121094 32.183594 -7.253906 32.355469 -7.390625 L 32.359375 -7.417969 C 32.484375 -7.722656 32.546875 -8.199219 32.546875 -8.847656 L 32.546875 -124.644531 L 52.160156 -127.351562 L 64.21875 -87.535156 C 67.300781 -77.519531 70.390625 -67.65625 73.484375 -57.949219 L 88.683594 -8.757812 C 88.832031 -8.253906 89.066406 -7.902344 89.378906 -7.699219 C 90.171875 -7.191406 91.203125 -6.902344 92.476562 -6.835938 L 92.058594 1.054688 L 92.242188 -6.84375 C 93.675781 -6.8125 94.671875 -6.96875 95.222656 -7.316406 C 95.480469 -7.480469 95.695312 -7.832031 95.867188 -8.378906 L 121.164062 -92.699219 L 131.5 -126.285156 L 151.152344 -124.253906 L 151.152344 -8.847656 C 151.152344 -8.199219 151.214844 -7.722656 151.339844 -7.417969 L 151.34375 -7.390625 C 151.511719 -7.253906 151.835938 -7.121094 152.308594 -6.992188 C 153.1875 -6.753906 154.308594 -6.636719 155.679688 -6.636719 C 157.050781 -6.636719 158.171875 -6.753906 159.050781 -6.992188 C 159.523438 -7.121094 159.847656 -7.253906 160.015625 -7.390625 L 160.023438 -7.417969 C 160.148438 -7.722656 160.210938 -8.199219 160.210938 -8.847656 L 160.210938 -153.996094 C 160.210938 -155.152344 160.03125 -156 159.671875 -156.539062 C 159.351562 -157.027344 158.742188 -157.449219 157.835938 -157.8125 C 153.429688 -159.550781 149.480469 -160.421875 145.988281 -160.421875 Z M 145.988281 -160.421875 "/></g></g></g><g fill="#000000" fill-opacity="1"><g transform="translate(982.903562, 182.230243)"><g><path d="M 30.335938 8.109375 C 22.359375 8.109375 16.675781 5.628906 13.28125 0.667969 C 10.535156 -3.34375 9.164062 -7.78125 9.164062 -12.640625 L 9.164062 -154.625 C 9.164062 -159.523438 10.554688 -163.949219 13.339844 -167.910156 C 16.738281 -172.75 22.402344 -175.167969 30.335938 -175.167969 L 103.644531 -175.167969 C 108.816406 -175.167969 112.875 -173.273438 115.828125 -169.492188 C 118.238281 -166.402344 119.546875 -162.253906 119.753906 -157.050781 C 119.972656 -151.566406 118.816406 -147.175781 116.292969 -143.875 C 113.34375 -140.019531 109.128906 -138.089844 103.644531 -138.089844 L 41.921875 -138.089844 L 41.921875 -145.988281 L 49.820312 -145.988281 L 49.820312 -21.066406 L 41.921875 -21.066406 L 41.921875 -28.964844 L 107.4375 -28.964844 C 112.617188 -28.964844 116.664062 -27.085938 119.578125 -23.328125 C 121.980469 -20.230469 123.234375 -16.089844 123.339844 -10.90625 C 123.550781 -5.519531 122.445312 -1.171875 120.03125 2.132812 C 117.117188 6.117188 112.921875 8.109375 107.4375 8.109375 Z M 30.335938 -7.6875 L 107.4375 -7.6875 C 107.652344 -7.6875 107.824219 -7.703125 107.953125 -7.726562 L 107.914062 -7.703125 C 107.65625 -7.589844 107.441406 -7.417969 107.273438 -7.1875 C 107.253906 -7.160156 107.238281 -7.136719 107.226562 -7.113281 C 107.226562 -7.117188 107.230469 -7.128906 107.238281 -7.148438 C 107.289062 -7.265625 107.335938 -7.429688 107.382812 -7.632812 C 107.539062 -8.347656 107.59375 -9.332031 107.546875 -10.582031 C 107.523438 -11.652344 107.421875 -12.523438 107.242188 -13.1875 C 107.1875 -13.382812 107.132812 -13.535156 107.078125 -13.652344 L 107.09375 -13.644531 C 107.25 -13.445312 107.449219 -13.292969 107.695312 -13.183594 C 107.75 -13.160156 107.789062 -13.144531 107.804688 -13.140625 C 107.71875 -13.15625 107.597656 -13.167969 107.4375 -13.167969 L 34.023438 -13.167969 L 34.023438 -153.890625 L 103.644531 -153.890625 C 104.019531 -153.890625 104.25 -153.90625 104.332031 -153.941406 C 104.105469 -153.84375 103.910156 -153.691406 103.742188 -153.472656 C 103.707031 -153.425781 103.6875 -153.398438 103.683594 -153.386719 C 103.722656 -153.480469 103.765625 -153.617188 103.804688 -153.792969 C 103.957031 -154.457031 104.011719 -155.332031 103.96875 -156.417969 C 103.921875 -157.539062 103.800781 -158.457031 103.597656 -159.164062 C 103.5 -159.5 103.425781 -159.703125 103.367188 -159.773438 C 103.496094 -159.609375 103.667969 -159.480469 103.886719 -159.382812 C 103.941406 -159.359375 103.976562 -159.347656 103.992188 -159.34375 C 103.910156 -159.359375 103.796875 -159.367188 103.644531 -159.367188 L 30.335938 -159.367188 C 28.679688 -159.367188 27.417969 -159.207031 26.546875 -158.882812 C 26.355469 -158.8125 26.222656 -158.75 26.148438 -158.695312 C 26.183594 -158.71875 26.222656 -158.765625 26.265625 -158.828125 C 25.398438 -157.589844 24.964844 -156.191406 24.964844 -154.625 L 24.964844 -12.640625 C 24.964844 -11.039062 25.417969 -9.578125 26.320312 -8.253906 C 26.289062 -8.304688 26.257812 -8.339844 26.226562 -8.359375 C 26.300781 -8.304688 26.429688 -8.246094 26.609375 -8.175781 C 27.460938 -7.851562 28.703125 -7.6875 30.335938 -7.6875 Z M 103.75 -87.003906 C 103.75 -79.875 101.242188 -73.851562 96.21875 -68.929688 C 91.242188 -64.054688 85.222656 -61.617188 78.15625 -61.617188 C 71.199219 -61.617188 65.265625 -64.074219 60.351562 -68.988281 C 55.4375 -73.902344 52.980469 -79.90625 52.980469 -87.003906 C 52.980469 -94.101562 55.4375 -100.105469 60.351562 -105.019531 C 65.265625 -109.933594 71.199219 -112.390625 78.15625 -112.390625 C 85.222656 -112.390625 91.242188 -109.953125 96.21875 -105.078125 C 101.242188 -100.15625 103.75 -94.132812 103.75 -87.003906 Z M 87.953125 -87.003906 C 87.953125 -89.707031 87.023438 -91.96875 85.164062 -93.789062 C 83.257812 -95.65625 80.921875 -96.589844 78.15625 -96.589844 C 75.5625 -96.589844 73.351562 -95.675781 71.523438 -93.847656 C 69.695312 -92.019531 68.78125 -89.738281 68.78125 -87.003906 C 68.78125 -84.269531 69.695312 -81.988281 71.523438 -80.160156 C 73.351562 -78.332031 75.5625 -77.417969 78.15625 -77.417969 C 80.921875 -77.417969 83.257812 -78.351562 85.164062 -80.21875 C 87.023438 -82.039062 87.953125 -84.300781 87.953125 -87.003906 Z M 87.953125 -87.003906 "/></g></g></g><g fill="#000000" fill-opacity="1"><g transform="translate(1148.478051, 182.230243)"><g><path d="M 96.625 -168.121094 C 98.144531 -170.207031 99.757812 -171.957031 101.46875 -173.363281 C 104.121094 -175.550781 107.375 -176.640625 111.230469 -176.640625 C 114.441406 -176.640625 117.863281 -175.730469 121.503906 -173.910156 C 125.132812 -172.195312 127.984375 -170.078125 130.066406 -167.558594 C 132.605469 -164.484375 133.875 -161.015625 133.875 -157.15625 C 133.875 -155.648438 133.71875 -154.117188 133.40625 -152.550781 C 132.945312 -150.242188 132.03125 -148.234375 130.671875 -146.53125 L 116.601562 -128.945312 L 116.601562 -151.675781 L 124.5 -151.675781 L 131.3125 -147.671875 L 90.652344 -78.574219 L 83.84375 -82.578125 L 90.644531 -86.601562 L 130.527344 -19.136719 L 130.742188 -18.628906 C 131.847656 -15.96875 132.402344 -13.273438 132.402344 -10.53125 C 132.402344 -6.84375 131.367188 -3.515625 129.300781 -0.542969 C 127.449219 2.117188 124.839844 4.34375 121.46875 6.132812 L 121.382812 6.179688 L 121.292969 6.222656 C 116.8125 8.464844 112.824219 9.585938 109.335938 9.585938 C 103.773438 9.585938 99.082031 6.839844 95.265625 1.351562 L 95.097656 1.113281 L 58.714844 -60.441406 L 65.515625 -64.464844 L 72.363281 -60.519531 C 69.675781 -55.855469 66.777344 -50.90625 63.667969 -45.679688 L 54.308594 -29.800781 C 51.136719 -24.371094 47.957031 -19.039062 44.773438 -13.800781 C 41.648438 -8.660156 38.765625 -3.796875 36.128906 0.78125 L 35.917969 1.144531 L 35.671875 1.488281 C 34.082031 3.671875 32.410156 5.421875 30.652344 6.742188 C 28.125 8.636719 25.140625 9.585938 21.699219 9.585938 C 17.96875 9.585938 13.96875 8.421875 9.699219 6.09375 C 6.273438 4.179688 3.625 1.957031 1.757812 -0.570312 C -0.46875 -3.582031 -1.578125 -6.902344 -1.578125 -10.53125 C -1.578125 -12.445312 -1.28125 -14.222656 -0.683594 -15.867188 C -0.351562 -16.777344 0.0546875 -17.792969 0.535156 -18.910156 L 15.695312 -15.800781 L 15.695312 -15.589844 L 7.792969 -15.589844 L 0.96875 -19.5625 C 7.445312 -30.6875 14.097656 -41.949219 20.925781 -53.355469 C 27.722656 -64.710938 34.417969 -75.996094 41.007812 -87.214844 L 47.820312 -83.210938 L 41.007812 -79.210938 L 0.636719 -147.90625 L 0.519531 -148.144531 C -0.0273438 -149.234375 -0.558594 -150.46875 -1.078125 -151.851562 C -1.832031 -153.871094 -2.210938 -155.707031 -2.210938 -157.367188 C -2.210938 -161.265625 -0.84375 -164.75 1.890625 -167.828125 C 4.042969 -170.25 7.035156 -172.324219 10.871094 -174.050781 L 14.113281 -166.84375 L 10.242188 -173.730469 C 13.691406 -175.671875 17.230469 -176.640625 20.855469 -176.640625 C 24.488281 -176.640625 27.648438 -175.59375 30.339844 -173.503906 C 32.191406 -172.0625 33.898438 -170.269531 35.460938 -168.121094 L 35.675781 -167.824219 L 72.9375 -105.15625 L 66.148438 -101.117188 L 59.347656 -105.140625 L 96.40625 -167.816406 Z M 109.402344 -158.828125 L 103.015625 -163.476562 L 109.816406 -159.453125 L 66.167969 -85.628906 L 22.28125 -159.4375 L 29.070312 -163.476562 L 22.683594 -158.828125 C 21.996094 -159.769531 21.316406 -160.503906 20.640625 -161.03125 C 20.75 -160.945312 20.867188 -160.882812 20.988281 -160.84375 C 21.011719 -160.835938 21.027344 -160.832031 21.03125 -160.832031 C 20.988281 -160.839844 20.929688 -160.839844 20.855469 -160.839844 C 19.988281 -160.839844 19.03125 -160.546875 17.988281 -159.960938 L 17.679688 -159.785156 L 17.355469 -159.640625 C 15.574219 -158.839844 14.355469 -158.070312 13.699219 -157.332031 C 13.628906 -157.253906 13.578125 -157.1875 13.542969 -157.128906 L 13.539062 -157.132812 C 13.570312 -157.210938 13.585938 -157.289062 13.585938 -157.367188 C 13.585938 -157.613281 13.574219 -157.800781 13.542969 -157.929688 C 13.570312 -157.8125 13.628906 -157.636719 13.71875 -157.402344 C 14.042969 -156.535156 14.351562 -155.804688 14.648438 -155.210938 L 7.582031 -151.675781 L 14.394531 -155.679688 L 56.984375 -83.210938 L 54.632812 -79.210938 C 48.019531 -67.957031 41.304688 -56.632812 34.480469 -45.238281 C 27.683594 -33.886719 21.066406 -22.679688 14.621094 -11.613281 L -0.105469 13.679688 L -0.105469 -15.800781 L 7.792969 -15.800781 L 15.054688 -12.6875 C 14.691406 -11.839844 14.394531 -11.101562 14.164062 -10.464844 C 14.195312 -10.550781 14.21875 -10.625 14.226562 -10.679688 C 14.222656 -10.65625 14.21875 -10.605469 14.21875 -10.53125 C 14.21875 -10.371094 14.300781 -10.183594 14.464844 -9.960938 C 14.980469 -9.261719 15.917969 -8.53125 17.265625 -7.777344 C 19.175781 -6.734375 20.652344 -6.214844 21.699219 -6.214844 L 21.746094 -6.199219 C 21.550781 -6.140625 21.359375 -6.039062 21.171875 -5.898438 C 21.660156 -6.265625 22.234375 -6.902344 22.894531 -7.804688 L 29.28125 -3.160156 L 22.4375 -7.101562 C 25.136719 -11.789062 28.082031 -16.761719 31.273438 -22.011719 C 34.410156 -27.167969 37.550781 -32.4375 40.699219 -37.824219 L 50.089844 -53.753906 C 53.160156 -58.917969 56.019531 -63.800781 58.671875 -68.40625 L 65.425781 -80.140625 L 108.550781 -7.179688 L 101.75 -3.160156 L 108.234375 -7.671875 C 108.757812 -6.921875 109.207031 -6.425781 109.585938 -6.183594 C 109.550781 -6.203125 109.46875 -6.214844 109.335938 -6.214844 C 110.339844 -6.214844 111.96875 -6.78125 114.226562 -7.910156 L 117.761719 -0.84375 L 114.054688 -7.820312 C 115.175781 -8.414062 115.933594 -8.996094 116.332031 -9.566406 C 116.511719 -9.828125 116.601562 -10.148438 116.601562 -10.53125 C 116.601562 -11.164062 116.453125 -11.835938 116.15625 -12.550781 L 123.449219 -15.589844 L 116.648438 -11.570312 L 74.671875 -82.570312 L 132.402344 -180.679688 L 132.402344 -151.46875 L 124.5 -151.46875 L 118.332031 -156.402344 C 118.09375 -156.101562 117.953125 -155.851562 117.914062 -155.648438 C 118.023438 -156.191406 118.078125 -156.691406 118.078125 -157.15625 C 118.078125 -157.226562 118.011719 -157.339844 117.882812 -157.496094 C 117.296875 -158.207031 116.148438 -158.96875 114.4375 -159.78125 C 113.023438 -160.488281 111.953125 -160.839844 111.230469 -160.839844 C 111.101562 -160.839844 110.996094 -160.835938 110.914062 -160.824219 L 110.917969 -160.828125 C 111.113281 -160.890625 111.3125 -161.003906 111.511719 -161.167969 C 110.835938 -160.609375 110.132812 -159.832031 109.402344 -158.828125 Z M 109.402344 -158.828125 "/></g></g></g><g fill="#fd6c01" fill-opacity="1"><g transform="translate(17.897657, 182.230243)"><g><path d="M 72.25 -146.609375 L 26.125 -5.0625 L 26.125 -5.265625 C 25.28125 -3.160156 24.117188 -1.441406 22.640625 -0.109375 C 21.171875 1.222656 19.382812 1.890625 17.28125 1.890625 C 16.15625 1.890625 15.0625 1.785156 14 1.578125 C 12.945312 1.367188 11.863281 1.125 10.75 0.84375 L 10.953125 0.84375 C 2.953125 -1.6875 0.00390625 -6.179688 2.109375 -12.640625 L 50.140625 -158.625 C 50.835938 -160.875 52.0625 -162.769531 53.8125 -164.3125 C 55.570312 -165.851562 57.644531 -166.765625 60.03125 -167.046875 C 62.425781 -167.472656 64.742188 -167.789062 66.984375 -168 C 69.234375 -168.207031 70.988281 -168.3125 72.25 -168.3125 C 73.519531 -168.3125 75.273438 -168.207031 77.515625 -168 C 79.765625 -167.789062 82.082031 -167.546875 84.46875 -167.265625 C 86.4375 -166.984375 88.367188 -165.925781 90.265625 -164.09375 C 92.160156 -162.269531 93.597656 -160.445312 94.578125 -158.625 C 102.441406 -134.46875 110.410156 -110.132812 118.484375 -85.625 C 126.566406 -61.125 134.539062 -36.796875 142.40625 -12.640625 C 144.375 -6.179688 141.425781 -1.6875 133.5625 0.84375 C 132.4375 1.125 131.414062 1.367188 130.5 1.578125 C 129.582031 1.785156 128.566406 1.890625 127.453125 1.890625 C 125.484375 1.890625 123.691406 1.222656 122.078125 -0.109375 C 120.460938 -1.441406 119.300781 -3.160156 118.59375 -5.265625 L 118.59375 -5.0625 Z M 88.046875 -50.5625 C 88.046875 -46.0625 86.46875 -42.234375 83.3125 -39.078125 C 80.15625 -35.921875 76.328125 -34.34375 71.828125 -34.34375 C 67.335938 -34.34375 63.546875 -35.921875 60.453125 -39.078125 C 57.367188 -42.234375 55.828125 -46.0625 55.828125 -50.5625 C 55.828125 -55.050781 57.367188 -58.875 60.453125 -62.03125 C 63.546875 -65.195312 67.335938 -66.78125 71.828125 -66.78125 C 76.328125 -66.78125 80.15625 -65.195312 83.3125 -62.03125 C 86.46875 -58.875 88.046875 -55.050781 88.046875 -50.5625 Z M 88.046875 -50.5625 "/></g></g></g><g fill="#fd6c01" fill-opacity="1"><g transform="translate(206.643668, 182.230243)"><g><path d="M 78.359375 -8.421875 C 78.359375 -1.679688 74.21875 1.6875 65.9375 1.6875 C 57.644531 1.6875 53.5 -1.679688 53.5 -8.421875 L 53.5 -64.453125 L 6.3125 -154.203125 C 5.476562 -156.023438 5.0625 -157.921875 5.0625 -159.890625 C 5.0625 -163.960938 7.445312 -166.984375 12.21875 -168.953125 L 12 -168.953125 C 15.09375 -170.066406 17.550781 -170.625 19.375 -170.625 C 23.03125 -170.625 25.84375 -168.800781 27.8125 -165.15625 L 66.140625 -93.109375 C 68.953125 -98.441406 71.972656 -104.160156 75.203125 -110.265625 C 78.429688 -116.378906 81.695312 -122.597656 85 -128.921875 C 88.300781 -135.242188 91.566406 -141.492188 94.796875 -147.671875 C 98.023438 -153.847656 101.113281 -159.675781 104.0625 -165.15625 C 105.1875 -166.84375 106.414062 -168.175781 107.75 -169.15625 C 109.082031 -170.132812 110.734375 -170.625 112.703125 -170.625 C 114.671875 -170.625 116.988281 -170.066406 119.65625 -168.953125 L 119.4375 -168.953125 C 124.351562 -166.835938 126.8125 -163.742188 126.8125 -159.671875 C 126.8125 -158.828125 126.738281 -157.945312 126.59375 -157.03125 C 126.457031 -156.125 126.109375 -155.179688 125.546875 -154.203125 C 124.285156 -151.671875 122.707031 -148.578125 120.8125 -144.921875 C 118.914062 -141.273438 116.242188 -136.1875 112.796875 -129.65625 C 109.359375 -123.125 104.898438 -114.625 99.421875 -104.15625 C 93.953125 -93.695312 86.929688 -80.253906 78.359375 -63.828125 Z M 78.359375 -8.421875 "/></g></g></g><g fill="#fd6c01" fill-opacity="1"><g transform="translate(381.908048, 182.230243)"><g><path d="M 76.46875 -69.3125 L 60.25 -69.3125 C 57.863281 -69.3125 56 -70.257812 54.65625 -72.15625 C 53.320312 -74.050781 52.65625 -76.613281 52.65625 -79.84375 C 52.65625 -87 55.609375 -90.578125 61.515625 -90.578125 L 86.15625 -90.578125 C 91.351562 -90.578125 95.003906 -92.050781 97.109375 -95 C 99.210938 -97.957031 100.265625 -101.191406 100.265625 -104.703125 L 100.265625 -131.875 C 100.265625 -135.382812 99.210938 -138.613281 97.109375 -141.5625 C 95.003906 -144.507812 91.351562 -145.984375 86.15625 -145.984375 L 41.703125 -145.984375 L 41.703125 -8.640625 C 41.703125 -1.898438 37.5625 1.46875 29.28125 1.46875 C 21 1.46875 16.859375 -1.898438 16.859375 -8.640625 L 16.859375 -154.625 C 16.859375 -159.675781 18.15625 -163.046875 20.75 -164.734375 C 23.34375 -166.421875 26.46875 -167.265625 30.125 -167.265625 L 91.421875 -167.265625 C 95.078125 -167.265625 98.867188 -166.488281 102.796875 -164.9375 C 106.734375 -163.394531 110.523438 -161.429688 114.171875 -159.046875 L 113.96875 -159.046875 C 117.613281 -156.378906 120.421875 -152.898438 122.390625 -148.609375 C 124.359375 -144.328125 125.34375 -139.378906 125.34375 -133.765625 L 125.34375 -103.015625 C 125.34375 -91.640625 121.550781 -83.140625 113.96875 -77.515625 C 112.414062 -76.398438 110.757812 -75.347656 109 -74.359375 C 107.25 -73.378906 105.460938 -72.394531 103.640625 -71.40625 L 137.34375 -15.796875 C 137.769531 -15.097656 138.191406 -14.1875 138.609375 -13.0625 C 139.035156 -11.9375 139.25 -11.023438 139.25 -10.328125 C 139.25 -6.953125 136.859375 -3.71875 132.078125 -0.625 L 132.078125 -0.84375 C 128.847656 1.125 126.109375 2.109375 123.859375 2.109375 C 120.628906 2.109375 118.035156 0.492188 116.078125 -2.734375 L 116.28125 -2.53125 Z M 76.46875 -69.3125 "/></g></g></g><g fill="#fd6c01" fill-opacity="1"><g transform="translate(568.126282, 182.230243)"><g><path d="M 96.484375 -167.265625 C 100.128906 -167.265625 103.914062 -166.488281 107.84375 -164.9375 C 111.78125 -163.394531 115.578125 -161.429688 119.234375 -159.046875 L 119.015625 -159.046875 C 122.671875 -156.378906 125.476562 -152.898438 127.4375 -148.609375 C 129.40625 -144.328125 130.390625 -139.378906 130.390625 -133.765625 L 130.390625 -33.703125 C 130.390625 -22.328125 126.597656 -13.832031 119.015625 -8.21875 C 115.367188 -5.550781 111.613281 -3.476562 107.75 -2 C 103.882812 -0.53125 100.128906 0.203125 96.484375 0.203125 L 50.5625 0.203125 C 46.90625 0.203125 43.144531 -0.53125 39.28125 -2 C 35.425781 -3.476562 31.671875 -5.550781 28.015625 -8.21875 C 24.367188 -11.019531 21.5625 -14.492188 19.59375 -18.640625 C 17.625 -22.785156 16.640625 -27.804688 16.640625 -33.703125 L 16.640625 -133.765625 C 16.640625 -139.378906 17.625 -144.328125 19.59375 -148.609375 C 21.5625 -152.898438 24.367188 -156.378906 28.015625 -159.046875 L 27.8125 -159.046875 C 31.457031 -161.429688 35.242188 -163.394531 39.171875 -164.9375 C 43.109375 -166.488281 46.90625 -167.265625 50.5625 -167.265625 Z M 91.21875 -21.0625 C 96.414062 -21.0625 100.066406 -22.535156 102.171875 -25.484375 C 104.273438 -28.429688 105.328125 -31.734375 105.328125 -35.390625 L 105.328125 -131.875 C 105.328125 -135.382812 104.273438 -138.613281 102.171875 -141.5625 C 100.066406 -144.507812 96.414062 -145.984375 91.21875 -145.984375 L 55.828125 -145.984375 C 50.628906 -145.984375 46.972656 -144.507812 44.859375 -141.5625 C 42.753906 -138.613281 41.703125 -135.382812 41.703125 -131.875 L 41.703125 -35.390625 C 41.703125 -31.734375 42.753906 -28.429688 44.859375 -25.484375 C 46.972656 -22.535156 50.628906 -21.0625 55.828125 -21.0625 Z M 91.21875 -21.0625 "/></g></g></g><g fill="#fd6c01" fill-opacity="1"><g transform="translate(757.714966, 182.230243)"><g><path d="M 145.984375 -168.3125 C 150.472656 -168.3125 155.390625 -167.257812 160.734375 -165.15625 C 165.648438 -163.1875 168.109375 -159.460938 168.109375 -153.984375 L 168.109375 -8.84375 C 168.109375 -2.101562 163.960938 1.265625 155.671875 1.265625 C 147.390625 1.265625 143.25 -2.101562 143.25 -8.84375 L 143.25 -117.125 L 137.140625 -117.75 L 128.703125 -90.375 L 103.4375 -6.109375 C 101.882812 -1.191406 98.09375 1.191406 92.0625 1.046875 C 89.382812 0.910156 87.0625 0.210938 85.09375 -1.046875 C 83.132812 -2.316406 81.804688 -4.144531 81.109375 -6.53125 L 65.9375 -55.609375 C 62.84375 -65.304688 59.75 -75.171875 56.65625 -85.203125 C 53.570312 -95.242188 50.207031 -106.375 46.5625 -118.59375 L 40.453125 -117.75 L 40.453125 -8.84375 C 40.453125 -2.101562 36.304688 1.265625 28.015625 1.265625 C 19.734375 1.265625 15.59375 -2.101562 15.59375 -8.84375 L 15.59375 -153.984375 C 15.59375 -159.328125 18.050781 -163.050781 22.96875 -165.15625 C 28.15625 -167.257812 33.140625 -168.242188 37.921875 -168.109375 C 40.023438 -168.109375 42.195312 -167.828125 44.4375 -167.265625 C 46.6875 -166.703125 48.796875 -165.894531 50.765625 -164.84375 C 52.734375 -163.789062 54.488281 -162.453125 56.03125 -160.828125 C 57.582031 -159.210938 58.773438 -157.351562 59.609375 -155.25 L 92.6875 -42.546875 C 95.070312 -50.835938 97.597656 -59.828125 100.265625 -69.515625 C 102.941406 -79.203125 105.679688 -89.03125 108.484375 -99 C 111.296875 -108.976562 114.070312 -118.847656 116.8125 -128.609375 C 119.550781 -138.367188 122.113281 -147.460938 124.5 -155.890625 C 125.34375 -157.847656 126.535156 -159.597656 128.078125 -161.140625 C 129.617188 -162.691406 131.375 -163.992188 133.34375 -165.046875 C 135.3125 -166.097656 137.382812 -166.90625 139.5625 -167.46875 C 141.738281 -168.03125 143.878906 -168.3125 145.984375 -168.3125 Z M 145.984375 -168.3125 "/></g></g></g><g fill="#fd6c01" fill-opacity="1"><g transform="translate(982.903562, 182.230243)"><g><path d="M 30.328125 0.203125 C 25.140625 0.203125 21.628906 -1.128906 19.796875 -3.796875 C 17.972656 -6.460938 17.0625 -9.410156 17.0625 -12.640625 L 17.0625 -154.625 C 17.0625 -157.851562 17.972656 -160.765625 19.796875 -163.359375 C 21.628906 -165.960938 25.140625 -167.265625 30.328125 -167.265625 L 103.640625 -167.265625 C 108.835938 -167.265625 111.578125 -163.753906 111.859375 -156.734375 C 112.140625 -149.566406 109.398438 -145.984375 103.640625 -145.984375 L 41.921875 -145.984375 L 41.921875 -21.0625 L 107.4375 -21.0625 C 112.632812 -21.0625 115.300781 -17.625 115.4375 -10.75 C 115.71875 -3.445312 113.050781 0.203125 107.4375 0.203125 Z M 95.84375 -87 C 95.84375 -82.082031 94.125 -77.9375 90.6875 -74.5625 C 87.25 -71.195312 83.070312 -69.515625 78.15625 -69.515625 C 73.375 -69.515625 69.296875 -71.195312 65.921875 -74.5625 C 62.554688 -77.9375 60.875 -82.082031 60.875 -87 C 60.875 -91.914062 62.554688 -96.054688 65.921875 -99.421875 C 69.296875 -102.796875 73.375 -104.484375 78.15625 -104.484375 C 83.070312 -104.484375 87.25 -102.796875 90.6875 -99.421875 C 94.125 -96.054688 95.84375 -91.914062 95.84375 -87 Z M 95.84375 -87 "/></g></g></g><g fill="#fd6c01" fill-opacity="1"><g transform="translate(1148.478051, 182.230243)"><g><path d="M 103.015625 -163.46875 C 104.140625 -165.007812 105.296875 -166.269531 106.484375 -167.25 C 107.679688 -168.238281 109.257812 -168.734375 111.21875 -168.734375 C 113.1875 -168.734375 115.4375 -168.101562 117.96875 -166.84375 C 123.300781 -164.3125 125.96875 -161.082031 125.96875 -157.15625 C 125.96875 -156.164062 125.863281 -155.144531 125.65625 -154.09375 C 125.445312 -153.039062 125.0625 -152.164062 124.5 -151.46875 L 124.5 -151.671875 L 83.84375 -82.578125 L 123.4375 -15.59375 C 124.144531 -13.90625 124.5 -12.21875 124.5 -10.53125 C 124.5 -6.457031 122.25 -3.226562 117.75 -0.84375 C 114.382812 0.84375 111.578125 1.6875 109.328125 1.6875 C 106.523438 1.6875 104 0.0703125 101.75 -3.15625 L 65.515625 -64.453125 C 62.847656 -59.828125 59.96875 -54.914062 56.875 -49.71875 C 53.789062 -44.519531 50.664062 -39.21875 47.5 -33.8125 C 44.34375 -28.40625 41.179688 -23.101562 38.015625 -17.90625 C 34.859375 -12.707031 31.945312 -7.789062 29.28125 -3.15625 C 28.15625 -1.613281 27.03125 -0.421875 25.90625 0.421875 C 24.78125 1.265625 23.378906 1.6875 21.703125 1.6875 C 19.304688 1.6875 16.566406 0.84375 13.484375 -0.84375 C 8.703125 -3.507812 6.3125 -6.738281 6.3125 -10.53125 C 6.3125 -11.507812 6.453125 -12.382812 6.734375 -13.15625 C 7.015625 -13.9375 7.367188 -14.816406 7.796875 -15.796875 L 7.796875 -15.59375 C 14.253906 -26.6875 20.890625 -37.921875 27.703125 -49.296875 C 34.515625 -60.671875 41.21875 -71.972656 47.8125 -83.203125 L 7.578125 -151.671875 C 7.160156 -152.515625 6.738281 -153.5 6.3125 -154.625 C 5.894531 -155.75 5.6875 -156.660156 5.6875 -157.359375 C 5.6875 -161.148438 8.492188 -164.3125 14.109375 -166.84375 C 16.359375 -168.101562 18.609375 -168.734375 20.859375 -168.734375 C 22.679688 -168.734375 24.222656 -168.238281 25.484375 -167.25 C 26.753906 -166.269531 27.953125 -165.007812 29.078125 -163.46875 L 66.140625 -101.109375 Z M 103.015625 -163.46875 "/></g></g></g></g></g><path stroke-linecap="butt" transform="matrix(0, 0.749827, -0.749827, 0, 907.523553, 839.028875)" fill="none" stroke-linejoin="miter" d="M -0.00204206 11.497599 L 519.940818 11.497599 " stroke="#fd6c01" stroke-width="23" stroke-opacity="1" stroke-miterlimit="4"/></svg>